<svg xmlns="http://www.w3.org/2000/svg" xmlns:xlink="http://www.w3.org/1999/xlink" width="300" zoomAndPan="magnify" viewBox="0 0 224.87999 225" height="300" preserveAspectRatio="xMidYMid meet" version="1.0"><defs><clipPath id="id1"><path d="M 0 0.0585938 L 224.761719 0.0585938 L 224.761719 224.9375 L 0 224.9375 Z M 0 0.0585938 " clip-rule="nonzero"/></clipPath></defs><g clip-path="url(#id1)"><path fill="#ff5757" d="M 224.878906 199.953125 C 224.878906 213.753906 213.691406 224.941406 199.894531 224.941406 L 24.988281 224.941406 C 11.1875 224.941406 0 213.753906 0 199.953125 L 0 25.046875 C 0 11.246094 11.1875 0.0585938 24.988281 0.0585938 L 199.894531 0.0585938 C 213.691406 0.0585938 224.878906 11.246094 224.878906 25.046875 Z M 224.878906 199.953125 " fill-opacity="1" fill-rule="nonzero"/></g><path fill="#ffffff" d="M 134.484375 112.539062 L 185.945312 61.078125 C 192.046875 54.980469 192.046875 45.09375 185.945312 38.996094 C 179.839844 32.890625 169.960938 32.890625 163.863281 38.996094 L 112.402344 90.457031 L 60.941406 38.996094 C 54.847656 32.890625 44.949219 32.890625 38.859375 38.996094 C 32.757812 45.09375 32.757812 54.980469 38.859375 61.078125 L 90.320312 112.539062 L 38.734375 164.121094 C 32.632812 170.226562 32.632812 180.109375 38.734375 186.203125 C 41.785156 189.253906 45.78125 190.777344 49.78125 190.777344 C 53.777344 190.777344 57.777344 189.253906 60.824219 186.203125 L 112.410156 134.613281 L 163.867188 186.074219 C 166.917969 189.121094 170.914062 190.644531 174.914062 190.644531 C 178.910156 190.644531 182.902344 189.121094 185.957031 186.074219 C 192.058594 179.96875 192.058594 170.089844 185.957031 163.992188 Z M 134.484375 112.539062 " fill-opacity="1" fill-rule="nonzero"/></svg>