<svg xmlns="http://www.w3.org/2000/svg" xmlns:xlink="http://www.w3.org/1999/xlink" width="85" zoomAndPan="magnify" viewBox="0 0 63.75 65.249999" height="87" preserveAspectRatio="xMidYMid meet" version="1.0"><defs><clipPath id="df24bc2a93"><path d="M 0.652344 0.6875 L 62.875 0.6875 L 62.875 64.425781 L 0.652344 64.425781 Z M 0.652344 0.6875 " clip-rule="nonzero"/></clipPath><clipPath id="59dfa138b5"><path d="M 38 12.878906 L 40 12.878906 L 40 15 L 38 15 Z M 38 12.878906 " clip-rule="nonzero"/></clipPath><clipPath id="4b52e89307"><path d="M 33 36 L 45 36 L 45 39.1875 L 33 39.1875 Z M 33 36 " clip-rule="nonzero"/></clipPath></defs><path fill="#ea6645" d="M 29.804688 58.234375 C 28.257812 58.730469 26.652344 59.046875 25.058594 59.355469 C 21.230469 60.09375 17.386719 60.457031 13.503906 60.148438 C 13.246094 60.640625 13.117188 61.195312 12.835938 61.675781 C 12.582031 62.109375 12.3125 62.53125 12.03125 62.949219 C 14.046875 62.921875 16.0625 62.808594 18.078125 62.667969 C 20.289062 62.523438 22.472656 62.382812 24.660156 62.019531 C 26.367188 61.738281 28.582031 61.628906 29.953125 60.441406 C 30.777344 59.734375 31.265625 58.601562 31.542969 57.492188 C 30.988281 57.796875 30.410156 58.046875 29.804688 58.234375 Z M 29.804688 58.234375 " fill-opacity="1" fill-rule="nonzero"/><path fill="#ea6645" d="M 12.023438 59.632812 C 11.265625 57.324219 10.808594 54.890625 10.464844 52.472656 C 9.9375 53.769531 9.839844 55.03125 10.027344 56.425781 C 10.191406 57.671875 10.4375 58.902344 10.546875 60.15625 C 10.605469 60.8125 10.679688 61.492188 10.910156 62.109375 C 11.21875 61.710938 11.46875 61.28125 11.667969 60.820312 C 11.808594 60.472656 11.925781 60.113281 12.085938 59.765625 C 12.058594 59.722656 12.039062 59.679688 12.023438 59.632812 Z M 12.023438 59.632812 " fill-opacity="1" fill-rule="nonzero"/><path fill="#ea6645" d="M 56.660156 48.585938 C 55.136719 49.585938 53.578125 50.460938 51.867188 51.09375 C 49.03125 52.144531 45.730469 53.742188 42.628906 53.011719 C 41.433594 52.730469 40.035156 52.121094 39.875 50.738281 C 39.734375 49.550781 40.371094 48.382812 40.921875 47.378906 C 41.511719 46.308594 42.101562 45.382812 42.105469 44.121094 C 42.105469 42.964844 41.90625 41.671875 40.898438 40.945312 C 39.992188 40.296875 38.730469 40.238281 37.648438 40.273438 C 36.539062 40.300781 35.449219 40.445312 34.371094 40.707031 C 32.28125 41.222656 29.917969 42.089844 28.558594 43.855469 C 28.164062 44.359375 27.914062 44.925781 27.816406 45.554688 C 27.847656 45.53125 27.875 45.507812 27.90625 45.484375 C 29.050781 44.65625 30.472656 44.3125 31.832031 44.023438 C 32.527344 43.882812 33.203125 43.707031 33.886719 43.53125 C 34.609375 43.339844 35.445312 43.152344 36.1875 43.375 C 37.8125 43.867188 38.710938 45.390625 38.628906 47.054688 C 38.554688 48.578125 37.945312 50.019531 37.957031 51.550781 C 37.964844 53.140625 38.542969 54.546875 39.984375 55.355469 C 41.71875 56.335938 43.582031 56.277344 45.449219 55.714844 C 47.316406 55.148438 49.074219 54.332031 50.867188 53.574219 C 52.410156 52.917969 54.277344 52.472656 55.617188 51.410156 C 55.675781 51.332031 55.746094 51.269531 55.832031 51.21875 C 56.558594 50.125 57.363281 49.019531 57.988281 47.84375 C 57.519531 48.117188 57.023438 48.347656 56.660156 48.585938 Z M 56.660156 48.585938 " fill-opacity="1" fill-rule="nonzero"/><path fill="#ea6645" d="M 15.25 37.679688 C 14.433594 37.574219 13.230469 37.351562 12.484375 37.824219 C 11.910156 38.1875 11.492188 38.726562 11.003906 39.191406 C 10.296875 39.859375 9.226562 40.40625 8.214844 40.203125 C 6.339844 39.824219 5.523438 37.609375 5.085938 35.988281 C 4.589844 34.167969 4.351562 32.304688 4.136719 30.433594 C 3.863281 28.027344 3.871094 25.4375 4.324219 22.984375 L 4.222656 23.101562 C 3.628906 23.769531 3.054688 24.472656 2.675781 25.285156 C 1.886719 27 2.300781 28.9375 2.371094 30.757812 C 2.445312 32.605469 2.816406 34.425781 3.230469 36.226562 C 3.574219 37.714844 3.984375 39.265625 4.863281 40.539062 C 5.714844 41.773438 7.261719 43.394531 8.933594 43.050781 C 10.441406 42.738281 11.390625 41.320312 12.578125 40.472656 C 14.480469 39.113281 16.777344 38.984375 18.6875 39.984375 C 17.921875 38.777344 16.652344 37.863281 15.25 37.679688 Z M 15.25 37.679688 " fill-opacity="1" fill-rule="nonzero"/><path fill="#ea6645" d="M 23.421875 13.449219 C 22.960938 13.09375 22.40625 12.867188 21.871094 12.652344 C 20.671875 12.167969 19.625 11.613281 18.855469 10.527344 C 18.851562 10.519531 18.84375 10.511719 18.839844 10.503906 C 18.800781 10.816406 18.761719 11.128906 18.726562 11.441406 C 18.691406 11.777344 18.464844 12.398438 18.617188 12.714844 C 18.734375 12.960938 19.46875 13.105469 19.703125 13.1875 C 20.695312 13.546875 21.792969 14.003906 22.234375 15.046875 C 22.367188 15.351562 22.453125 15.671875 22.488281 16.007812 L 22.550781 15.984375 C 22.679688 15.933594 22.816406 15.886719 22.953125 15.84375 C 23.160156 15.527344 23.425781 15.269531 23.742188 15.066406 C 23.886719 14.457031 24.003906 13.902344 23.421875 13.449219 Z M 23.421875 13.449219 " fill-opacity="1" fill-rule="nonzero"/><path fill="#ea6645" d="M 59.605469 28.328125 C 58.863281 28.519531 58.128906 28.519531 57.367188 28.542969 C 56.703125 28.566406 55.976562 28.605469 55.472656 29.09375 C 54.804688 29.742188 54.621094 30.707031 54.597656 31.652344 C 54.863281 31.40625 55.164062 31.21875 55.5 31.085938 C 56.082031 30.851562 56.664062 30.832031 57.28125 30.828125 C 57.820312 30.828125 58.164062 30.828125 58.5 30.371094 C 58.804688 29.960938 58.96875 29.492188 59.226562 29.0625 C 59.375 28.8125 59.523438 28.5625 59.671875 28.308594 C 59.648438 28.3125 59.628906 28.324219 59.605469 28.328125 Z M 59.605469 28.328125 " fill-opacity="1" fill-rule="nonzero"/><path fill="#ea6645" d="M 60.550781 21.125 C 59.949219 19.921875 59.097656 18.453125 57.902344 17.75 C 57.335938 17.417969 56.667969 17.210938 56.066406 17.609375 C 55.472656 17.976562 55.082031 18.492188 54.898438 19.167969 C 54.542969 20.441406 54.492188 22.007812 53.496094 23 C 52.441406 24.046875 51.027344 24.394531 49.71875 23.59375 C 48.582031 22.902344 47.644531 21.578125 47.164062 20.347656 C 46.429688 18.464844 46.121094 16.480469 45.734375 14.507812 C 45.390625 12.777344 44.992188 11.0625 44.554688 9.355469 C 43.191406 10.207031 41.773438 11.003906 40.382812 11.800781 C 39.078125 12.550781 37.734375 13.441406 36.207031 13.632812 C 34.894531 13.800781 33.015625 13.527344 32.230469 12.308594 C 31.617188 11.359375 31.820312 10.246094 32.28125 9.277344 C 32.855469 8.0625 34.3125 6.574219 33.765625 5.125 C 33.207031 3.640625 31.601562 2.699219 30.105469 2.390625 C 27.339844 1.824219 23.820312 2.34375 21.582031 4.144531 C 20.589844 4.941406 19.65625 6.058594 19.453125 7.351562 C 19.367188 8.035156 19.476562 8.6875 19.78125 9.304688 C 20.085938 9.921875 20.539062 10.402344 21.132812 10.75 C 22.246094 11.355469 23.707031 11.597656 24.59375 12.5625 C 25.113281 13.128906 25.4375 13.796875 25.3125 14.589844 C 25.25 14.980469 25.199219 15.484375 25.027344 15.839844 C 24.972656 15.945312 24.894531 16.03125 24.792969 16.09375 C 24.785156 16.316406 24.695312 16.5 24.523438 16.640625 C 24.121094 16.980469 23.515625 17.160156 23.035156 17.34375 C 22.441406 17.570312 21.84375 17.789062 21.234375 17.972656 C 19.25 18.5625 17.335938 19.386719 15.347656 19.953125 C 13.457031 20.488281 11.527344 21.101562 9.582031 21.386719 C 8.429688 21.542969 7.273438 21.617188 6.109375 21.609375 C 5.367188 24.132812 5.332031 26.933594 5.515625 29.523438 C 5.617188 30.964844 5.800781 32.398438 6.070312 33.820312 C 6.34375 35.277344 6.679688 36.980469 7.617188 38.171875 C 7.933594 38.578125 8.308594 38.839844 8.734375 38.796875 C 9.546875 38.714844 10.09375 38.070312 10.628906 37.523438 C 11.164062 36.972656 11.761719 36.464844 12.542969 36.269531 C 13.375 36.058594 14.265625 36.109375 15.113281 36.210938 C 15.921875 36.300781 16.683594 36.53125 17.40625 36.910156 C 18.125 37.289062 18.75 37.785156 19.28125 38.398438 C 21.335938 40.746094 21.527344 44.214844 19.042969 46.316406 C 18.378906 46.882812 17.617188 47.300781 16.847656 47.699219 C 16.105469 48.085938 15.273438 48.433594 14.425781 48.476562 C 13.691406 48.511719 12.6875 48.234375 12.066406 48.726562 C 12.046875 48.742188 12.03125 48.761719 12.015625 48.777344 C 11.917969 49.109375 11.804688 49.429688 11.679688 49.746094 L 11.679688 49.921875 C 11.660156 51.230469 11.980469 52.496094 12.183594 53.78125 C 12.421875 55.441406 12.777344 57.074219 13.253906 58.6875 C 16.929688 59.039062 20.625 58.726562 24.238281 58.054688 C 25.769531 57.769531 27.316406 57.476562 28.8125 57.035156 C 29.71875 56.765625 30.808594 56.460938 31.507812 55.789062 C 32.390625 54.9375 32.398438 53.648438 31.363281 52.894531 C 30.113281 51.980469 28.800781 51.339844 27.8125 50.089844 C 26.222656 48.074219 25.738281 45.378906 27.265625 43.199219 C 28.5625 41.34375 30.808594 40.246094 32.929688 39.613281 C 35.046875 38.980469 37.378906 38.605469 39.582031 38.953125 C 40.859375 39.15625 42.132812 39.769531 42.804688 40.929688 C 43.476562 42.089844 43.617188 43.394531 43.515625 44.703125 C 43.414062 45.953125 42.804688 46.9375 42.21875 48.019531 C 41.867188 48.660156 40.859375 50.15625 41.441406 50.898438 C 41.824219 51.390625 42.683594 51.585938 43.265625 51.664062 C 44.023438 51.757812 44.777344 51.738281 45.527344 51.605469 C 47.15625 51.339844 48.710938 50.753906 50.246094 50.167969 C 51.875 49.546875 53.445312 48.925781 54.925781 47.988281 C 55.570312 47.582031 56.207031 47.183594 56.871094 46.804688 C 57.152344 46.667969 57.421875 46.511719 57.683594 46.335938 C 57.671875 46.296875 57.664062 46.257812 57.660156 46.214844 C 58.496094 45.695312 59.332031 44.976562 58.960938 44.148438 C 58.667969 43.15625 57.503906 41.859375 57.160156 41.457031 C 55.398438 39.386719 53.710938 37.046875 53.335938 34.28125 C 53.050781 32.214844 52.839844 29.570312 54.515625 28.019531 C 55.417969 27.183594 56.609375 27.125 57.777344 27.097656 C 59.054688 27.074219 60.03125 26.792969 60.695312 25.605469 C 61.503906 24.167969 61.261719 22.558594 60.550781 21.125 Z M 60.550781 21.125 " fill-opacity="1" fill-rule="nonzero"/><g clip-path="url(#df24bc2a93)"><path fill="#012243" d="M 61.742188 20.308594 C 60.738281 18.394531 58.921875 15.605469 56.386719 15.980469 C 55.164062 16.164062 54.167969 17.144531 53.703125 18.246094 C 53.238281 19.347656 53.265625 20.621094 52.6875 21.6875 C 52.40625 22.191406 51.980469 22.5 51.414062 22.613281 C 50.871094 22.699219 50.390625 22.347656 50.007812 22.011719 C 48.976562 21.097656 48.429688 19.746094 48.042969 18.457031 C 47.527344 16.730469 47.289062 14.917969 46.925781 13.15625 C 46.5625 11.367188 46.117188 9.589844 45.652344 7.824219 C 45.460938 7.117188 44.578125 7.257812 44.328125 7.796875 C 42.671875 8.875 40.914062 9.835938 39.203125 10.828125 C 37.660156 11.71875 35.972656 12.703125 34.152344 11.992188 C 32.761719 11.449219 33.402344 10.175781 33.953125 9.203125 C 34.753906 7.789062 35.585938 6.511719 35.1875 4.824219 C 34.828125 3.292969 33.300781 2.101562 31.945312 1.484375 C 30.542969 0.84375 28.957031 0.703125 27.4375 0.773438 C 24.484375 0.917969 21.546875 1.859375 19.542969 4.117188 C 19.050781 4.671875 18.664062 5.296875 18.386719 5.984375 C 18.214844 6.089844 18.113281 6.242188 18.078125 6.441406 C 17.789062 7.839844 17.554688 9.25 17.375 10.671875 C 17.277344 11.457031 16.945312 12.527344 17.308594 13.289062 C 17.722656 14.160156 18.777344 14.367188 19.601562 14.683594 C 20.101562 14.871094 20.519531 15.09375 20.859375 15.507812 C 20.9375 15.632812 20.988281 15.761719 21.015625 15.902344 C 21.039062 15.976562 21.054688 16.054688 21.058594 16.132812 C 21.058594 16.167969 21.066406 16.195312 21.070312 16.21875 C 20.980469 16.320312 20.921875 16.4375 20.902344 16.574219 L 20.761719 16.617188 C 18.851562 17.171875 17.03125 17.980469 15.125 18.523438 C 13.265625 19.054688 11.382812 19.640625 9.472656 19.957031 C 8.308594 20.121094 7.140625 20.195312 5.964844 20.175781 C 5.667969 19.96875 5.257812 19.957031 5.058594 20.292969 C 4.972656 20.351562 4.910156 20.425781 4.863281 20.519531 C 4.382812 20.800781 3.992188 21.214844 3.621094 21.632812 C 3.023438 22.300781 2.425781 22.949219 1.933594 23.699219 C 1.453125 24.421875 1.105469 25.203125 0.894531 26.046875 C 0.652344 27.035156 0.761719 28.148438 0.835938 29.152344 C 0.976562 31.171875 1.117188 33.121094 1.535156 35.113281 C 1.875 36.761719 2.210938 38.421875 2.90625 39.964844 C 3.59375 41.484375 4.703125 42.878906 6.125 43.773438 C 7.652344 44.734375 9.273438 44.71875 10.804688 43.792969 C 12.222656 42.945312 13.152344 41.511719 14.75 40.941406 C 16.265625 40.398438 17.84375 40.90625 19.003906 41.945312 C 19.15625 42.085938 19.300781 42.234375 19.4375 42.386719 L 19.449219 42.398438 C 19.453125 42.691406 19.429688 42.988281 19.371094 43.277344 C 19.144531 44.382812 18.261719 45.1875 17.351562 45.769531 C 16.726562 46.171875 16.070312 46.511719 15.378906 46.789062 C 14.652344 47.070312 13.945312 47.050781 13.183594 47.023438 C 12.066406 46.988281 11.003906 47.398438 10.515625 48.457031 C 10.375 48.78125 10.285156 49.125 10.246094 49.480469 C 9.847656 50.449219 9.332031 51.375 8.953125 52.351562 C 8.398438 53.777344 8.414062 55.28125 8.613281 56.777344 C 8.785156 58.058594 9.007812 59.324219 9.136719 60.613281 C 9.246094 61.730469 9.480469 62.933594 10.226562 63.816406 C 10.382812 64 10.585938 64.105469 10.828125 64.128906 C 10.976562 64.308594 11.164062 64.394531 11.398438 64.390625 C 16.214844 64.382812 21.097656 64.0625 25.855469 63.28125 C 27.710938 62.976562 29.722656 62.648438 31.132812 61.300781 C 32.390625 60.097656 33 58.066406 33.207031 56.390625 C 33.222656 56.261719 33.207031 56.136719 33.164062 56.019531 C 33.429688 55.546875 33.574219 55.039062 33.59375 54.496094 C 33.613281 53.953125 33.507812 53.4375 33.273438 52.945312 C 32.632812 51.636719 31.058594 51.125 29.980469 50.257812 C 29.054688 49.515625 28.390625 48.585938 27.996094 47.46875 C 28.054688 47.417969 28.105469 47.363281 28.148438 47.300781 C 28.910156 46.167969 30.402344 45.832031 31.648438 45.53125 C 32.273438 45.382812 32.902344 45.265625 33.523438 45.125 C 34.332031 44.941406 35.074219 44.613281 35.914062 44.789062 C 36.734375 44.964844 37.101562 45.882812 37.179688 46.617188 C 37.265625 47.414062 37.046875 48.195312 36.863281 48.964844 C 36.519531 50.421875 36.382812 51.921875 36.734375 53.386719 C 37.117188 54.996094 38.347656 56.148438 39.773438 56.878906 C 41.429688 57.730469 43.296875 57.691406 45.066406 57.304688 C 46.945312 56.894531 48.738281 56.085938 50.484375 55.3125 C 52.160156 54.570312 53.929688 54.011719 55.558594 53.164062 C 55.847656 53.011719 56.125 52.832031 56.382812 52.628906 C 56.574219 52.574219 56.726562 52.464844 56.839844 52.300781 L 56.910156 52.195312 C 57.007812 52.109375 57.078125 52.003906 57.113281 51.878906 C 58.558594 49.695312 60.253906 47.460938 60.484375 44.785156 C 60.5 44.65625 60.484375 44.535156 60.4375 44.414062 C 60.398438 43.355469 59.765625 42.25 59.085938 41.46875 C 57.953125 40.164062 56.832031 38.863281 55.957031 37.363281 C 55.359375 36.332031 54.96875 35.226562 54.785156 34.046875 C 54.886719 33.949219 54.953125 33.828125 54.984375 33.691406 C 55.269531 32.496094 56.324219 32.265625 57.394531 32.265625 C 58.542969 32.265625 59.289062 31.851562 59.898438 30.875 C 60.445312 29.996094 60.929688 29.042969 61.417969 28.128906 C 61.957031 27.117188 62.4375 26.015625 62.589844 24.875 C 62.601562 24.796875 62.601562 24.71875 62.589844 24.640625 C 62.878906 23.175781 62.421875 21.601562 61.742188 20.308594 Z M 19.703125 13.191406 C 19.46875 13.109375 18.734375 12.964844 18.617188 12.71875 C 18.464844 12.398438 18.691406 11.777344 18.726562 11.445312 C 18.761719 11.132812 18.800781 10.820312 18.839844 10.507812 C 18.84375 10.515625 18.851562 10.527344 18.855469 10.53125 C 19.625 11.617188 20.671875 12.171875 21.871094 12.65625 C 22.40625 12.875 22.960938 13.097656 23.421875 13.457031 C 24.003906 13.90625 23.886719 14.460938 23.742188 15.070312 C 23.425781 15.273438 23.160156 15.53125 22.953125 15.84375 C 22.8125 15.894531 22.671875 15.941406 22.550781 15.988281 L 22.488281 16.007812 C 22.453125 15.675781 22.367188 15.355469 22.234375 15.046875 C 21.792969 14.007812 20.695312 13.550781 19.703125 13.191406 Z M 12.578125 40.472656 C 11.390625 41.320312 10.441406 42.738281 8.933594 43.050781 C 7.261719 43.394531 5.714844 41.773438 4.863281 40.539062 C 3.984375 39.265625 3.574219 37.714844 3.230469 36.226562 C 2.816406 34.425781 2.445312 32.605469 2.371094 30.757812 C 2.300781 28.9375 1.886719 27 2.675781 25.289062 C 3.054688 24.472656 3.628906 23.769531 4.222656 23.105469 L 4.324219 22.988281 C 3.871094 25.441406 3.871094 28.023438 4.136719 30.433594 C 4.351562 32.304688 4.589844 34.167969 5.085938 35.988281 C 5.527344 37.609375 6.339844 39.828125 8.214844 40.203125 C 9.226562 40.40625 10.289062 39.859375 11.003906 39.191406 C 11.496094 38.730469 11.910156 38.191406 12.484375 37.824219 C 13.230469 37.351562 14.433594 37.574219 15.25 37.683594 C 16.652344 37.863281 17.921875 38.78125 18.6875 39.988281 C 16.773438 38.984375 14.480469 39.113281 12.578125 40.472656 Z M 10.90625 62.113281 C 10.671875 61.496094 10.601562 60.816406 10.542969 60.15625 C 10.433594 58.902344 10.1875 57.675781 10.023438 56.425781 C 9.835938 55.035156 9.933594 53.769531 10.460938 52.476562 C 10.808594 54.894531 11.265625 57.328125 12.019531 59.636719 C 12.035156 59.683594 12.054688 59.726562 12.074219 59.769531 C 11.917969 60.113281 11.792969 60.476562 11.660156 60.824219 C 11.464844 61.285156 11.210938 61.714844 10.90625 62.113281 Z M 29.957031 60.445312 C 28.585938 61.632812 26.371094 61.742188 24.660156 62.027344 C 22.472656 62.386719 20.289062 62.535156 18.078125 62.679688 C 16.0625 62.808594 14.046875 62.925781 12.03125 62.960938 C 12.3125 62.546875 12.582031 62.125 12.835938 61.6875 C 13.117188 61.207031 13.246094 60.652344 13.503906 60.160156 C 17.386719 60.46875 21.238281 60.105469 25.058594 59.363281 C 26.652344 59.058594 28.257812 58.742188 29.804688 58.246094 C 30.410156 58.058594 30.988281 57.8125 31.542969 57.507812 C 31.265625 58.613281 30.777344 59.734375 29.957031 60.445312 Z M 55.839844 51.21875 C 55.753906 51.269531 55.679688 51.332031 55.621094 51.410156 C 54.28125 52.472656 52.417969 52.917969 50.875 53.574219 C 49.082031 54.332031 47.328125 55.148438 45.457031 55.714844 C 43.582031 56.28125 41.726562 56.335938 39.988281 55.355469 C 38.546875 54.546875 37.972656 53.140625 37.960938 51.550781 C 37.953125 50.019531 38.5625 48.578125 38.636719 47.054688 C 38.71875 45.390625 37.816406 43.867188 36.195312 43.375 C 35.453125 43.152344 34.617188 43.339844 33.890625 43.53125 C 33.207031 43.707031 32.53125 43.875 31.839844 44.023438 C 30.476562 44.3125 29.058594 44.65625 27.914062 45.484375 C 27.882812 45.507812 27.851562 45.53125 27.820312 45.554688 C 27.921875 44.925781 28.167969 44.359375 28.5625 43.855469 C 29.921875 42.089844 32.28125 41.222656 34.375 40.707031 C 35.453125 40.445312 36.546875 40.300781 37.65625 40.273438 C 38.734375 40.246094 40 40.296875 40.902344 40.945312 C 41.910156 41.671875 42.117188 42.964844 42.113281 44.121094 C 42.113281 45.378906 41.519531 46.304688 40.929688 47.378906 C 40.375 48.382812 39.742188 49.550781 39.878906 50.738281 C 40.039062 52.121094 41.441406 52.730469 42.636719 53.011719 C 45.734375 53.742188 49.039062 52.144531 51.871094 51.09375 C 53.585938 50.460938 55.144531 49.585938 56.664062 48.585938 C 57.03125 48.347656 57.527344 48.117188 58 47.84375 C 57.367188 49.019531 56.5625 50.125 55.835938 51.21875 Z M 59.230469 29.0625 C 58.972656 29.488281 58.804688 29.960938 58.503906 30.371094 C 58.167969 30.824219 57.820312 30.824219 57.285156 30.828125 C 56.664062 30.828125 56.085938 30.851562 55.5 31.085938 C 55.167969 31.21875 54.867188 31.40625 54.597656 31.652344 C 54.621094 30.707031 54.804688 29.742188 55.472656 29.09375 C 55.976562 28.605469 56.707031 28.566406 57.371094 28.542969 C 58.132812 28.519531 58.863281 28.519531 59.609375 28.328125 C 59.628906 28.328125 59.652344 28.3125 59.675781 28.308594 C 59.523438 28.558594 59.375 28.8125 59.226562 29.0625 Z M 60.699219 25.605469 C 60.035156 26.792969 59.054688 27.074219 57.78125 27.097656 C 56.617188 27.125 55.425781 27.183594 54.519531 28.019531 C 52.84375 29.574219 53.0625 32.214844 53.339844 34.28125 C 53.710938 37.046875 55.398438 39.386719 57.167969 41.457031 C 57.507812 41.859375 58.671875 43.15625 58.964844 44.148438 C 59.339844 44.976562 58.5 45.695312 57.664062 46.214844 C 57.667969 46.257812 57.675781 46.296875 57.6875 46.335938 C 57.429688 46.511719 57.15625 46.667969 56.878906 46.804688 C 56.210938 47.183594 55.574219 47.582031 54.929688 47.988281 C 53.445312 48.925781 51.875 49.546875 50.25 50.167969 C 48.714844 50.753906 47.160156 51.339844 45.53125 51.605469 C 44.78125 51.738281 44.027344 51.757812 43.269531 51.664062 C 42.6875 51.585938 41.828125 51.390625 41.445312 50.898438 C 40.867188 50.15625 41.871094 48.660156 42.222656 48.019531 C 42.808594 46.941406 43.421875 45.953125 43.519531 44.707031 C 43.621094 43.394531 43.472656 42.085938 42.8125 40.929688 C 42.148438 39.777344 40.867188 39.15625 39.589844 38.957031 C 37.386719 38.605469 35.050781 38.980469 32.933594 39.613281 C 30.816406 40.246094 28.566406 41.347656 27.269531 43.199219 C 25.742188 45.382812 26.226562 48.074219 27.816406 50.089844 C 28.808594 51.34375 30.121094 51.984375 31.371094 52.898438 C 32.398438 53.652344 32.386719 54.945312 31.511719 55.789062 C 30.804688 56.460938 29.71875 56.769531 28.816406 57.039062 C 27.324219 57.480469 25.777344 57.769531 24.246094 58.054688 C 20.621094 58.726562 16.933594 59.046875 13.257812 58.6875 C 12.785156 57.078125 12.425781 55.445312 12.1875 53.78125 C 11.988281 52.5 11.667969 51.234375 11.6875 49.921875 L 11.6875 49.75 C 11.8125 49.433594 11.925781 49.109375 12.023438 48.78125 C 12.039062 48.761719 12.054688 48.746094 12.070312 48.730469 C 12.691406 48.234375 13.699219 48.511719 14.433594 48.476562 C 15.285156 48.4375 16.109375 48.085938 16.851562 47.703125 C 17.621094 47.300781 18.382812 46.882812 19.050781 46.320312 C 21.53125 44.21875 21.34375 40.746094 19.289062 38.402344 C 18.757812 37.785156 18.132812 37.289062 17.410156 36.914062 C 16.691406 36.535156 15.925781 36.300781 15.117188 36.214844 C 14.265625 36.113281 13.378906 36.0625 12.546875 36.273438 C 11.773438 36.464844 11.179688 36.964844 10.632812 37.523438 C 10.089844 38.085938 9.554688 38.71875 8.738281 38.800781 C 8.3125 38.84375 7.941406 38.582031 7.621094 38.175781 C 6.683594 36.980469 6.347656 35.277344 6.074219 33.824219 C 5.808594 32.402344 5.625 30.96875 5.519531 29.527344 C 5.339844 26.9375 5.378906 24.132812 6.117188 21.613281 C 7.277344 21.617188 8.433594 21.546875 9.585938 21.390625 C 11.53125 21.109375 13.460938 20.492188 15.351562 19.957031 C 17.335938 19.390625 19.253906 18.566406 21.238281 17.972656 C 21.847656 17.792969 22.449219 17.574219 23.039062 17.347656 C 23.523438 17.164062 24.128906 16.980469 24.527344 16.644531 C 24.703125 16.503906 24.792969 16.320312 24.800781 16.097656 C 24.898438 16.035156 24.976562 15.949219 25.03125 15.84375 C 25.210938 15.488281 25.261719 14.984375 25.316406 14.59375 C 25.441406 13.800781 25.117188 13.132812 24.597656 12.566406 C 23.710938 11.597656 22.25 11.359375 21.140625 10.753906 C 20.542969 10.40625 20.09375 9.925781 19.785156 9.308594 C 19.480469 8.6875 19.371094 8.039062 19.460938 7.355469 C 19.660156 6.0625 20.59375 4.949219 21.585938 4.148438 C 23.828125 2.34375 27.34375 1.820312 30.109375 2.394531 C 31.605469 2.703125 33.214844 3.636719 33.773438 5.128906 C 34.316406 6.578125 32.863281 8.0625 32.285156 9.277344 C 31.824219 10.246094 31.625 11.359375 32.234375 12.308594 C 33.023438 13.527344 34.902344 13.800781 36.214844 13.636719 C 37.738281 13.441406 39.085938 12.550781 40.386719 11.804688 C 41.777344 11.003906 43.199219 10.214844 44.558594 9.359375 C 45 11.066406 45.394531 12.777344 45.738281 14.507812 C 46.128906 16.480469 46.4375 18.464844 47.171875 20.347656 C 47.652344 21.578125 48.589844 22.898438 49.722656 23.59375 C 51.035156 24.394531 52.445312 24.046875 53.5 23 C 54.492188 22.007812 54.546875 20.441406 54.90625 19.167969 C 55.089844 18.496094 55.476562 17.976562 56.070312 17.609375 C 56.675781 17.21875 57.339844 17.421875 57.90625 17.753906 C 59.101562 18.460938 59.957031 19.921875 60.554688 21.128906 C 61.261719 22.558594 61.503906 24.167969 60.699219 25.605469 Z M 60.699219 25.605469 " fill-opacity="1" fill-rule="nonzero"/></g><path fill="#012243" d="M 31.691406 30.265625 C 32.089844 29.988281 32.453125 30.109375 32.769531 30.449219 C 32.777344 30.449219 32.785156 30.449219 32.792969 30.449219 C 32.96875 30.433594 33.195312 30.417969 33.484375 30.371094 C 33.742188 30.335938 34.050781 30.269531 34.382812 30.117188 C 33.875 29.269531 33.890625 28.066406 33.777344 27.117188 C 33.628906 25.875 33.613281 24.683594 33.601562 23.4375 C 33.554688 23.449219 33.507812 23.460938 33.460938 23.472656 C 33.246094 23.511719 33.050781 23.523438 32.878906 23.527344 C 32.535156 23.53125 32.265625 23.511719 32.0625 23.492188 C 31.660156 23.449219 31.511719 23.410156 31.511719 23.390625 C 31.511719 23.359375 31.667969 23.347656 32.074219 23.359375 C 32.273438 23.359375 32.539062 23.367188 32.875 23.351562 C 33.039062 23.34375 33.226562 23.332031 33.421875 23.289062 C 33.519531 23.269531 33.621094 23.242188 33.710938 23.195312 C 33.730469 23.183594 33.75 23.175781 33.765625 23.160156 C 33.785156 23.105469 33.796875 23.046875 33.808594 22.988281 C 33.675781 23.011719 33.550781 23.019531 33.4375 23.019531 C 33.15625 23.023438 32.941406 22.996094 32.777344 22.980469 C 32.449219 22.9375 32.328125 22.910156 32.324219 22.886719 C 32.324219 22.859375 32.457031 22.835938 32.785156 22.847656 C 32.949219 22.847656 33.164062 22.859375 33.433594 22.84375 C 33.570312 22.839844 33.71875 22.824219 33.875 22.789062 C 33.878906 22.789062 33.882812 22.789062 33.882812 22.789062 C 33.917969 22.761719 33.957031 22.75 34 22.75 C 34.125 22.714844 34.253906 22.613281 34.222656 22.480469 C 33.992188 22.53125 33.753906 22.542969 33.5 22.558594 C 32.867188 22.589844 32.234375 22.628906 31.597656 22.640625 C 30.621094 22.652344 29.652344 22.605469 28.695312 22.425781 C 28.695312 22.429688 28.695312 22.429688 28.691406 22.429688 C 28.648438 22.519531 28.675781 22.59375 28.726562 22.648438 C 28.789062 22.675781 28.859375 22.699219 28.929688 22.714844 C 29.078125 22.746094 29.222656 22.761719 29.351562 22.777344 C 29.605469 22.804688 29.808594 22.8125 29.964844 22.820312 C 30.277344 22.839844 30.394531 22.859375 30.394531 22.886719 C 30.394531 22.910156 30.28125 22.941406 29.964844 22.957031 C 29.808594 22.964844 29.601562 22.96875 29.335938 22.953125 C 29.253906 22.945312 29.171875 22.9375 29.082031 22.925781 C 29.089844 22.980469 29.101562 23.039062 29.113281 23.09375 C 29.242188 23.21875 29.417969 23.273438 29.5625 23.296875 C 29.777344 23.328125 29.949219 23.328125 30.085938 23.332031 C 30.351562 23.339844 30.457031 23.363281 30.457031 23.390625 C 30.457031 23.414062 30.359375 23.4375 30.089844 23.464844 C 29.953125 23.476562 29.773438 23.496094 29.535156 23.46875 C 29.464844 23.460938 29.382812 23.445312 29.296875 23.414062 C 29.296875 23.414062 29.296875 23.417969 29.296875 23.421875 C 29.289062 24.671875 29.28125 25.871094 29.125 27.117188 C 29.003906 28.082031 29.027344 29.292969 28.503906 30.144531 C 28.5 30.148438 28.496094 30.152344 28.496094 30.15625 C 28.695312 30.199219 28.886719 30.246094 29.0625 30.285156 C 29.308594 30.328125 29.53125 30.363281 29.730469 30.398438 C 29.933594 30.425781 30.117188 30.4375 30.277344 30.457031 C 30.4375 30.476562 30.574219 30.496094 30.699219 30.5 C 30.835938 30.507812 30.949219 30.515625 31.039062 30.523438 C 31.242188 30.28125 31.503906 30.109375 31.691406 30.265625 " fill-opacity="1" fill-rule="nonzero"/><path fill="#012243" d="M 30.261719 30.613281 C 30.101562 30.601562 29.917969 30.59375 29.710938 30.570312 C 29.503906 30.539062 29.277344 30.503906 29.027344 30.46875 C 28.804688 30.421875 28.558594 30.363281 28.296875 30.300781 C 28.148438 30.378906 28.042969 30.566406 28.167969 30.695312 C 28.207031 30.707031 28.238281 30.730469 28.261719 30.765625 C 28.382812 30.835938 28.511719 30.890625 28.632812 30.929688 C 28.828125 30.992188 29.011719 31.03125 29.179688 31.0625 C 29.40625 31.101562 29.601562 31.128906 29.769531 31.148438 C 30.070312 30.902344 30.417969 30.816406 30.816406 30.875 C 30.855469 30.796875 30.902344 30.710938 30.960938 30.628906 C 30.882812 30.632812 30.792969 30.632812 30.691406 30.632812 C 30.566406 30.636719 30.425781 30.625 30.261719 30.613281 " fill-opacity="1" fill-rule="nonzero"/><path fill="#012243" d="M 25.941406 23.15625 C 25.875 23.816406 25.75 24.542969 25.566406 25.183594 C 25.371094 25.867188 24.980469 26.5 24.835938 27.203125 C 24.660156 28.0625 24.964844 28.648438 25.472656 29.316406 C 25.71875 29.644531 25.917969 29.957031 25.984375 30.34375 C 26.171875 30.328125 26.339844 30.300781 26.484375 30.25 C 26.53125 30.238281 26.574219 30.214844 26.617188 30.195312 C 26.660156 30.171875 26.703125 30.148438 26.746094 30.121094 C 26.796875 30.09375 26.84375 30.070312 26.871094 30.054688 C 26.871094 30.054688 26.875 30.054688 26.875 30.050781 C 26.875 30.050781 26.875 30.050781 26.875 30.046875 C 26.875 30.046875 26.859375 30.023438 26.847656 30.011719 C 26.835938 29.996094 26.824219 29.980469 26.808594 29.964844 C 26.753906 29.902344 26.691406 29.835938 26.628906 29.777344 C 26.5625 29.710938 26.503906 29.660156 26.425781 29.578125 C 26.371094 29.507812 26.316406 29.441406 26.265625 29.375 C 26.160156 29.25 26.074219 29.113281 25.984375 28.992188 C 25.902344 28.867188 25.832031 28.742188 25.761719 28.628906 C 25.703125 28.503906 25.652344 28.390625 25.605469 28.28125 C 25.59375 28.257812 25.578125 28.210938 25.574219 28.179688 C 25.566406 28.148438 25.5625 28.117188 25.558594 28.085938 C 25.554688 28.027344 25.554688 27.976562 25.550781 27.929688 C 25.550781 27.832031 25.546875 27.746094 25.535156 27.679688 C 25.519531 27.613281 25.503906 27.574219 25.472656 27.550781 C 25.402344 27.488281 25.332031 27.492188 25.273438 27.523438 C 25.214844 27.558594 25.179688 27.601562 25.15625 27.628906 C 25.132812 27.65625 25.113281 27.671875 25.101562 27.667969 C 25.089844 27.667969 25.082031 27.648438 25.085938 27.601562 C 25.089844 27.554688 25.109375 27.484375 25.183594 27.40625 C 25.222656 27.371094 25.277344 27.332031 25.351562 27.320312 C 25.378906 27.316406 25.40625 27.316406 25.433594 27.320312 L 25.378906 27.226562 C 25.53125 27.128906 25.664062 26.929688 25.753906 26.738281 C 25.773438 26.6875 25.796875 26.640625 25.8125 26.589844 C 25.828125 26.542969 25.839844 26.492188 25.855469 26.445312 C 25.863281 26.402344 25.871094 26.359375 25.878906 26.320312 L 25.878906 26.316406 C 25.878906 26.316406 25.878906 26.316406 25.875 26.316406 C 25.816406 26.300781 25.761719 26.285156 25.703125 26.257812 C 25.6875 26.25 25.675781 26.246094 25.65625 26.234375 C 25.636719 26.222656 25.617188 26.210938 25.597656 26.199219 C 25.5625 26.171875 25.527344 26.140625 25.5 26.101562 C 25.449219 26.027344 25.429688 25.933594 25.453125 25.847656 C 25.460938 25.804688 25.484375 25.765625 25.507812 25.726562 C 25.527344 25.6875 25.550781 25.664062 25.574219 25.636719 C 25.617188 25.59375 25.660156 25.558594 25.695312 25.527344 C 25.769531 25.46875 25.847656 25.414062 25.917969 25.367188 C 26.058594 25.265625 26.175781 25.183594 26.226562 25.085938 C 26.257812 25.039062 26.277344 24.988281 26.285156 24.933594 C 26.289062 24.917969 26.289062 24.902344 26.289062 24.890625 C 26.292969 24.886719 26.292969 24.886719 26.292969 24.882812 C 26.292969 24.878906 26.292969 24.875 26.292969 24.871094 C 26.289062 24.871094 26.292969 24.871094 26.273438 24.863281 L 26.257812 24.855469 L 26.21875 24.828125 C 26.1875 24.808594 26.160156 24.785156 26.136719 24.761719 C 26.113281 24.738281 26.09375 24.710938 26.074219 24.683594 C 26.035156 24.628906 26.007812 24.570312 25.992188 24.5 C 25.980469 24.46875 25.984375 24.425781 25.980469 24.390625 C 25.980469 24.351562 25.992188 24.320312 26.003906 24.285156 C 26.019531 24.214844 26.070312 24.148438 26.121094 24.109375 C 26.171875 24.070312 26.21875 24.042969 26.261719 24.027344 C 26.34375 23.988281 26.40625 23.964844 26.449219 23.9375 L 26.460938 23.929688 C 26.539062 23.886719 26.605469 23.839844 26.644531 23.789062 C 26.679688 23.742188 26.6875 23.691406 26.683594 23.664062 C 26.683594 23.628906 26.660156 23.609375 26.625 23.601562 C 26.609375 23.601562 26.59375 23.597656 26.578125 23.597656 C 26.542969 23.597656 26.503906 23.597656 26.460938 23.59375 C 26.417969 23.589844 26.371094 23.582031 26.3125 23.5625 C 26.261719 23.542969 26.195312 23.507812 26.152344 23.433594 C 26.105469 23.363281 26.085938 23.269531 26.113281 23.175781 C 26.136719 23.082031 26.246094 23.019531 26.34375 23 C 26.386719 22.988281 26.421875 22.980469 26.449219 22.972656 L 26.46875 22.964844 C 26.472656 22.964844 26.472656 22.960938 26.476562 22.960938 C 26.480469 22.960938 26.492188 22.957031 26.5 22.949219 C 26.5 22.949219 26.503906 22.945312 26.503906 22.941406 C 26.527344 22.917969 26.558594 22.855469 26.574219 22.777344 C 26.613281 22.628906 26.613281 22.433594 26.597656 22.230469 C 26.589844 22.128906 26.574219 22.019531 26.546875 21.914062 C 26.539062 21.871094 26.523438 21.828125 26.507812 21.785156 C 26.476562 21.800781 26.441406 21.808594 26.410156 21.816406 C 26.28125 21.828125 26.140625 21.75 26.074219 21.640625 C 26.015625 21.542969 25.992188 21.429688 26.003906 21.316406 C 26.011719 21.207031 26.0625 21.082031 26.160156 21 C 26.257812 20.917969 26.363281 20.886719 26.382812 20.867188 C 26.394531 20.863281 26.390625 20.863281 26.390625 20.859375 C 26.394531 20.851562 26.398438 20.824219 26.394531 20.808594 C 26.390625 20.761719 26.363281 20.691406 26.328125 20.625 C 26.292969 20.554688 26.25 20.484375 26.199219 20.414062 C 26.101562 20.269531 25.988281 20.128906 25.863281 19.980469 C 25.800781 19.910156 25.726562 19.820312 25.667969 19.734375 C 25.605469 19.648438 25.546875 19.5625 25.488281 19.488281 C 25.429688 19.410156 25.371094 19.34375 25.300781 19.289062 C 25.269531 19.261719 25.234375 19.242188 25.195312 19.21875 C 25.148438 19.191406 25.105469 19.167969 25.058594 19.144531 C 25.007812 19.121094 24.957031 19.097656 24.90625 19.078125 C 25.011719 19.226562 25.105469 19.378906 25.195312 19.53125 C 25.855469 20.675781 26.074219 21.832031 25.941406 23.15625 " fill-opacity="1" fill-rule="nonzero"/><path fill="#012243" d="M 31.132812 20.097656 C 31.46875 20.113281 31.820312 20.128906 32.167969 20.128906 C 32.253906 20.128906 32.335938 20.125 32.421875 20.125 L 32.535156 20.121094 L 32.535156 20.007812 C 32.53125 19.898438 32.535156 19.789062 32.542969 19.660156 L 32.546875 19.546875 L 32.429688 19.542969 C 31.855469 19.527344 31.273438 19.53125 30.710938 19.535156 L 30.3125 19.535156 L 30.296875 19.632812 C 30.28125 19.738281 30.269531 19.839844 30.261719 19.945312 L 30.25 20.066406 L 30.371094 20.070312 C 30.625 20.074219 30.878906 20.085938 31.132812 20.097656 " fill-opacity="1" fill-rule="nonzero"/><path fill="#012243" d="M 29.121094 19.96875 C 29.152344 19.96875 29.171875 19.976562 29.183594 20 C 29.199219 20.03125 29.195312 20.070312 29.175781 20.09375 L 29.144531 20.136719 L 29.152344 20.1875 C 29.15625 20.203125 29.164062 20.21875 29.171875 20.230469 L 29.171875 20.800781 L 29.695312 20.800781 L 29.707031 20.695312 C 29.738281 20.367188 29.710938 20.007812 29.683594 19.734375 L 29.675781 19.652344 L 29.597656 19.632812 C 29.179688 19.535156 28.707031 19.5625 28.335938 19.703125 L 27.933594 19.855469 L 28.355469 19.925781 C 28.601562 19.964844 28.859375 19.976562 29.121094 19.96875 " fill-opacity="1" fill-rule="nonzero"/><path fill="#012243" d="M 28.226562 33.125 C 28.273438 32.921875 28.285156 32.71875 28.273438 32.507812 C 28.269531 32.382812 28.414062 32.304688 28.519531 32.339844 C 28.652344 32.378906 28.753906 32.46875 28.859375 32.554688 C 28.933594 32.613281 29.042969 32.738281 29.144531 32.671875 C 29.144531 32.671875 29.148438 32.671875 29.148438 32.671875 C 29.097656 32.210938 29.234375 31.734375 29.535156 31.375 C 29.5625 31.34375 29.589844 31.316406 29.617188 31.285156 C 29.480469 31.277344 29.324219 31.261719 29.148438 31.234375 C 28.976562 31.207031 28.785156 31.171875 28.578125 31.105469 C 28.476562 31.074219 28.371094 31.035156 28.261719 30.984375 C 28.195312 31.4375 28.019531 31.800781 27.734375 32.179688 C 27.378906 32.648438 26.847656 33.289062 27.183594 33.910156 C 27.648438 33.757812 28.074219 33.472656 28.226562 33.125 " fill-opacity="1" fill-rule="nonzero"/><path fill="#012243" d="M 29.019531 20.933594 C 28.96875 20.90625 28.988281 20.890625 28.988281 20.8125 L 28.988281 20.234375 C 28.539062 20.230469 28.402344 20.203125 28.140625 20.144531 C 28.125 20.722656 28.023438 21.300781 28.058594 21.882812 C 28.191406 22.007812 28.359375 22.078125 28.53125 22.140625 C 28.542969 22.144531 28.554688 22.148438 28.5625 22.152344 C 28.582031 22.160156 28.597656 22.167969 28.617188 22.179688 C 29.597656 22.378906 30.597656 22.4375 31.597656 22.414062 C 32.074219 22.402344 32.546875 22.378906 33.023438 22.355469 C 33.414062 22.335938 33.828125 22.351562 34.207031 22.253906 C 34.234375 22.207031 34.28125 22.167969 34.332031 22.152344 C 34.339844 22.148438 34.34375 22.144531 34.355469 22.140625 C 34.527344 22.078125 34.683594 22.007812 34.816406 21.882812 C 34.851562 21.300781 34.78125 20.722656 34.761719 20.144531 C 34.503906 20.203125 34.21875 20.230469 33.917969 20.234375 L 33.917969 20.8125 C 33.917969 20.890625 33.933594 20.90625 33.882812 20.933594 C 33.851562 20.988281 33.847656 20.984375 33.769531 20.984375 L 33.140625 20.984375 C 33.054688 20.984375 32.996094 20.976562 32.972656 20.914062 C 32.914062 20.894531 32.867188 20.890625 32.855469 20.828125 C 32.828125 20.675781 32.8125 20.519531 32.8125 20.363281 C 31.902344 20.429688 30.996094 20.316406 30.085938 20.320312 C 30.09375 20.488281 30.074219 20.644531 30.042969 20.8125 C 30.035156 20.875 29.984375 20.898438 29.921875 20.917969 C 29.898438 20.980469 29.839844 20.984375 29.753906 20.984375 C 29.628906 20.984375 29.125 20.984375 29.125 20.984375 C 29.046875 20.984375 29.046875 20.988281 29.019531 20.933594 " fill-opacity="1" fill-rule="nonzero"/><path fill="#012243" d="M 33.546875 31.042969 C 33.882812 31 34.25 30.800781 34.757812 30.664062 C 34.851562 30.519531 34.707031 30.320312 34.539062 30.277344 C 34.527344 30.273438 34.515625 30.269531 34.503906 30.265625 C 34.132812 30.445312 33.785156 30.511719 33.507812 30.546875 C 33.253906 30.574219 33.046875 30.582031 32.882812 30.582031 C 33 30.730469 33.109375 30.902344 33.210938 31.097656 C 33.316406 31.085938 33.429688 31.074219 33.546875 31.042969 " fill-opacity="1" fill-rule="nonzero"/><path fill="#012243" d="M 38.007812 15.703125 C 38.015625 15.703125 38.039062 15.703125 38.046875 15.710938 C 38.058594 15.722656 38.0625 15.769531 38.042969 15.835938 L 38.035156 15.859375 C 38.035156 15.875 38.03125 15.882812 38.027344 15.894531 L 37.933594 16.019531 C 37.871094 16.105469 37.808594 16.1875 37.746094 16.273438 L 37.671875 16.363281 L 37.78125 16.40625 C 38.125 16.539062 38.476562 16.65625 38.828125 16.65625 C 39.109375 16.65625 39.394531 16.578125 39.667969 16.371094 L 39.734375 16.320312 L 39.683594 16.25 C 39.628906 16.179688 39.574219 16.105469 39.523438 16.035156 L 39.421875 15.894531 C 39.414062 15.886719 39.410156 15.875 39.410156 15.851562 L 39.410156 15.835938 L 39.40625 15.824219 C 39.398438 15.785156 39.40625 15.75 39.425781 15.726562 C 39.4375 15.707031 39.460938 15.699219 39.492188 15.703125 C 39.660156 15.71875 40.101562 15.722656 40.3125 15.722656 L 40.460938 15.726562 L 40.460938 15.0625 L 39.542969 15.0625 C 39.527344 15.0625 39.503906 15.0625 39.480469 15.050781 C 39.445312 15.039062 39.414062 15.015625 39.40625 14.988281 C 39.402344 14.980469 39.394531 14.960938 39.421875 14.921875 C 39.5625 14.71875 39.730469 14.480469 39.917969 14.265625 L 40.003906 14.164062 L 39.878906 14.128906 C 39.699219 14.074219 39.503906 14.050781 39.253906 14.046875 L 39.25 14.042969 L 39.175781 14.070312 L 39.152344 14.101562 C 39.128906 14.128906 39.097656 14.144531 39.0625 14.148438 L 39.027344 14.15625 C 38.777344 14.269531 38.492188 14.234375 38.285156 14.0625 L 38.234375 14.042969 L 38.203125 14.042969 C 37.941406 14.046875 37.746094 14.074219 37.570312 14.125 L 37.441406 14.164062 L 37.527344 14.265625 C 37.714844 14.476562 37.882812 14.714844 38.023438 14.917969 C 38.039062 14.941406 38.046875 14.964844 38.042969 14.984375 C 38.035156 15.007812 38.011719 15.03125 37.972656 15.050781 C 37.964844 15.054688 37.949219 15.0625 37.910156 15.0625 L 37.09375 15.0625 L 37.09375 15.726562 L 37.234375 15.722656 C 37.429688 15.722656 37.84375 15.71875 38.007812 15.703125 " fill-opacity="1" fill-rule="nonzero"/><path fill="#012243" d="M 33.578125 31.214844 C 33.476562 31.238281 33.382812 31.246094 33.292969 31.253906 C 33.753906 32.199219 34.0625 33.480469 34.1875 34.066406 C 34.277344 34.035156 34.371094 34.003906 34.464844 33.972656 C 34.480469 33.792969 34.480469 33.503906 34.480469 33.503906 C 34.480469 33.394531 34.554688 33.332031 34.636719 33.320312 C 34.75 33.226562 34.878906 33.160156 35.015625 33.113281 C 35.023438 33.113281 35.03125 33.113281 35.039062 33.109375 C 35.160156 32.898438 35.273438 32.683594 35.382812 32.46875 C 35.308594 32.367188 35.234375 32.269531 35.164062 32.179688 C 34.863281 31.777344 34.683594 31.394531 34.628906 30.898438 C 34.234375 31.023438 33.894531 31.179688 33.578125 31.214844 " fill-opacity="1" fill-rule="nonzero"/><path fill="#012243" d="M 39.320312 16.773438 L 39.292969 16.78125 C 38.976562 16.878906 38.628906 16.871094 38.203125 16.753906 L 38.167969 16.742188 L 38.132812 16.765625 C 38.125 16.769531 38.117188 16.773438 38.101562 16.773438 C 38.082031 16.769531 38.0625 16.765625 38.046875 16.769531 L 37.972656 16.777344 L 37.972656 16.851562 C 37.976562 17 37.976562 17.101562 37.992188 17.25 L 38 17.328125 L 39.449219 17.328125 L 39.457031 17.25 C 39.46875 17.097656 39.472656 16.972656 39.472656 16.851562 L 39.476562 16.765625 L 39.386719 16.765625 C 39.367188 16.765625 39.351562 16.769531 39.335938 16.78125 L 39.320312 16.773438 " fill-opacity="1" fill-rule="nonzero"/><g clip-path="url(#59dfa138b5)"><path fill="#012243" d="M 38.746094 14.019531 C 38.832031 14.019531 38.925781 13.992188 39.015625 13.929688 L 39.039062 13.902344 C 39.191406 13.636719 39.253906 13.265625 38.953125 13.035156 C 38.769531 12.886719 38.492188 12.914062 38.339844 13.089844 C 38.117188 13.34375 38.195312 13.65625 38.359375 13.835938 C 38.457031 13.941406 38.597656 14.019531 38.746094 14.019531 " fill-opacity="1" fill-rule="nonzero"/></g><path fill="#012243" d="M 38.695312 19.203125 C 39.648438 19.214844 40.582031 19.191406 41.449219 18.75 C 40.839844 18.320312 40.261719 17.855469 39.589844 17.53125 C 39.574219 17.539062 39.5625 17.542969 39.542969 17.542969 C 38.988281 17.542969 38.042969 17.542969 37.828125 17.542969 C 37.199219 17.839844 36.644531 18.285156 36.074219 18.691406 C 36.421875 18.800781 36.75 18.96875 37.105469 19.050781 C 37.621094 19.171875 38.164062 19.195312 38.695312 19.203125 " fill-opacity="1" fill-rule="nonzero"/><path fill="#012243" d="M 38.175781 21.964844 C 38.527344 21.964844 38.800781 21.941406 39.015625 21.9375 C 39.4375 21.917969 39.605469 21.9375 39.605469 21.976562 C 39.605469 22.011719 39.449219 22.054688 39.03125 22.121094 C 38.820312 22.152344 38.542969 22.195312 38.183594 22.207031 C 38 22.214844 37.796875 22.210938 37.570312 22.183594 C 37.398438 22.164062 37.210938 22.125 37.019531 22.058594 C 37.003906 22.078125 36.984375 22.097656 36.960938 22.105469 C 36.824219 22.167969 36.808594 22.261719 36.859375 22.398438 C 36.867188 22.421875 36.871094 22.445312 36.867188 22.472656 C 37.46875 22.683594 38.097656 22.695312 38.738281 22.710938 C 39.371094 22.726562 40.003906 22.726562 40.578125 22.441406 C 40.578125 22.425781 40.582031 22.414062 40.585938 22.398438 C 40.636719 22.261719 40.621094 22.167969 40.484375 22.105469 C 40.4375 22.085938 40.410156 22.039062 40.398438 21.988281 C 40.367188 21.9375 40.359375 21.875 40.398438 21.808594 C 40.867188 20.929688 41.160156 19.984375 41.40625 19.023438 C 40.625 19.378906 39.789062 19.445312 38.933594 19.433594 C 38.386719 19.425781 37.789062 19.445312 37.253906 19.320312 C 36.828125 19.21875 36.433594 19.035156 36.015625 18.910156 C 36.261719 19.898438 36.558594 20.875 37.035156 21.777344 C 37.457031 21.941406 37.855469 21.960938 38.175781 21.964844 " fill-opacity="1" fill-rule="nonzero"/><path fill="#012243" d="M 36.769531 24.609375 C 36.804688 24.621094 36.832031 24.636719 36.855469 24.660156 C 36.886719 24.667969 36.921875 24.683594 36.945312 24.710938 C 37 24.722656 37.054688 24.738281 37.113281 24.746094 C 37.390625 24.800781 37.652344 24.824219 37.886719 24.835938 C 38.359375 24.859375 38.734375 24.847656 39.019531 24.855469 C 39.589844 24.859375 39.8125 24.894531 39.8125 24.929688 C 39.808594 24.964844 39.59375 24.996094 39.027344 25.042969 C 38.742188 25.058594 38.367188 25.089844 37.878906 25.078125 C 37.636719 25.074219 37.363281 25.054688 37.066406 25.003906 C 37.042969 24.996094 37.019531 24.992188 36.996094 24.988281 C 37.027344 25.328125 37.132812 25.648438 37.164062 25.992188 C 37.195312 26.347656 37.175781 26.695312 37.15625 27.050781 C 37.113281 27.792969 37.042969 28.539062 36.894531 29.269531 C 36.59375 30.730469 36.058594 32.105469 35.3125 33.390625 C 35.289062 33.433594 35.257812 33.457031 35.222656 33.472656 C 35.398438 33.53125 35.566406 33.582031 35.734375 33.628906 C 36.003906 33.6875 36.261719 33.738281 36.511719 33.765625 C 37.011719 33.828125 37.46875 33.839844 37.882812 33.84375 C 38.296875 33.847656 38.667969 33.84375 38.996094 33.84375 C 39.324219 33.839844 39.613281 33.847656 39.859375 33.839844 C 40.101562 33.832031 40.3125 33.839844 40.484375 33.824219 C 40.65625 33.8125 40.796875 33.800781 40.90625 33.792969 C 41.121094 33.78125 41.21875 33.785156 41.222656 33.804688 C 41.226562 33.824219 41.136719 33.851562 40.921875 33.894531 C 40.8125 33.917969 40.671875 33.945312 40.5 33.972656 C 40.324219 34.003906 40.113281 34.007812 39.863281 34.027344 C 39.613281 34.046875 39.328125 34.050781 39 34.0625 C 38.671875 34.070312 38.300781 34.085938 37.882812 34.085938 C 37.464844 34.089844 36.996094 34.082031 36.480469 34.023438 C 36.222656 33.996094 35.953125 33.945312 35.671875 33.882812 C 35.410156 33.816406 35.140625 33.730469 34.867188 33.617188 L 34.863281 33.617188 C 34.863281 33.621094 34.859375 33.621094 34.859375 33.625 C 34.855469 33.746094 34.851562 33.894531 34.835938 34.023438 C 34.835938 34.039062 34.832031 34.054688 34.824219 34.074219 C 34.828125 34.089844 34.828125 34.109375 34.828125 34.128906 C 36.003906 34.53125 37.039062 34.699219 37.890625 34.757812 C 38.785156 34.816406 39.484375 34.769531 40.011719 34.691406 C 40.28125 34.65625 40.503906 34.625 40.695312 34.601562 C 40.882812 34.578125 41.035156 34.558594 41.148438 34.546875 C 41.378906 34.511719 41.480469 34.492188 41.488281 34.511719 C 41.492188 34.527344 41.402344 34.578125 41.171875 34.644531 C 41.054688 34.679688 40.902344 34.710938 40.714844 34.746094 C 40.535156 34.78125 40.308594 34.828125 40.042969 34.875 C 39.507812 34.980469 38.789062 35.046875 37.875 35 C 36.960938 34.953125 35.847656 34.777344 34.570312 34.320312 L 34.605469 34.21875 C 34.480469 34.246094 34.359375 34.3125 34.257812 34.425781 C 34.414062 35.277344 34.503906 36.15625 34.394531 37.011719 C 34.832031 37.210938 35.289062 37.367188 35.792969 37.457031 C 36.75 37.632812 37.730469 37.714844 38.707031 37.742188 C 40.5625 37.796875 42.5625 37.59375 44.121094 36.480469 C 44.109375 36.4375 44.113281 36.390625 44.140625 36.34375 C 44.363281 35.980469 44.214844 35.347656 43.996094 35.007812 C 43.710938 34.5625 43.222656 34.441406 42.75 34.292969 C 42.636719 34.261719 42.601562 34.160156 42.621094 34.070312 C 42.617188 34.054688 42.613281 34.035156 42.609375 34.019531 C 42.597656 33.910156 42.59375 33.742188 42.589844 33.625 C 42.585938 33.621094 42.582031 33.621094 42.582031 33.617188 C 42.519531 33.554688 42.421875 33.511719 42.328125 33.480469 C 42.328125 33.476562 42.328125 33.476562 42.328125 33.476562 C 42.257812 33.492188 42.179688 33.472656 42.132812 33.390625 C 41.394531 32.113281 40.824219 30.726562 40.550781 29.269531 C 40.402344 28.464844 40.320312 27.65625 40.277344 26.839844 C 40.242188 26.144531 40.453125 25.464844 40.453125 24.835938 C 40.453125 24.726562 40.523438 24.667969 40.601562 24.652344 C 40.617188 24.632812 40.644531 24.621094 40.675781 24.609375 C 40.976562 24.535156 41.335938 24.4375 41.550781 24.195312 C 41.792969 23.917969 41.785156 23.414062 41.332031 23.390625 C 41.308594 23.386719 41.285156 23.382812 41.265625 23.371094 C 39.628906 23.953125 37.875 23.414062 36.203125 23.363281 C 36.175781 23.378906 36.148438 23.386719 36.113281 23.390625 C 35.683594 23.414062 35.621094 23.933594 35.894531 24.195312 C 36.136719 24.429688 36.453125 24.527344 36.769531 24.609375 " fill-opacity="1" fill-rule="nonzero"/><path fill="#012243" d="M 40.832031 22.632812 C 40.820312 22.632812 40.816406 22.632812 40.808594 22.628906 C 40.78125 22.636719 40.75 22.636719 40.71875 22.628906 C 40.714844 22.628906 40.714844 22.628906 40.714844 22.625 C 40.101562 22.941406 39.417969 22.960938 38.738281 22.9375 C 38.015625 22.914062 37.332031 22.898438 36.664062 22.632812 C 36.65625 22.632812 36.648438 22.632812 36.640625 22.628906 C 36.632812 22.632812 36.621094 22.632812 36.617188 22.632812 C 36.386719 22.65625 36.289062 22.882812 36.335938 23.089844 C 36.339844 23.105469 36.339844 23.125 36.339844 23.144531 C 37.917969 23.214844 39.570312 23.6875 41.113281 23.183594 C 41.105469 23.15625 41.101562 23.121094 41.109375 23.089844 C 41.15625 22.882812 41.0625 22.65625 40.832031 22.632812 " fill-opacity="1" fill-rule="nonzero"/><path fill="#012243" d="M 33.203125 20.800781 L 33.734375 20.800781 L 33.734375 20.214844 L 33.753906 20.128906 L 33.726562 20.089844 C 33.710938 20.066406 33.710938 20.027344 33.726562 20 C 33.738281 19.976562 33.75 19.964844 33.785156 19.96875 C 34.058594 19.976562 34.308594 19.960938 34.546875 19.925781 L 34.972656 19.855469 L 34.570312 19.703125 C 34.195312 19.5625 33.722656 19.535156 33.304688 19.632812 L 33.222656 19.652344 L 33.214844 19.734375 C 33.1875 20.007812 33.160156 20.367188 33.195312 20.695312 L 33.203125 20.800781 " fill-opacity="1" fill-rule="nonzero"/><path fill="#012243" d="M 32.191406 34.191406 C 31.988281 33.183594 31.75 31.964844 30.90625 31.273438 C 30.894531 31.273438 30.886719 31.269531 30.878906 31.269531 C 30.878906 31.269531 30.875 31.269531 30.871094 31.269531 C 30.003906 31.058594 29.363281 31.941406 29.546875 32.761719 C 29.550781 32.785156 29.550781 32.816406 29.546875 32.839844 C 30 33.429688 30.152344 34.097656 30.25 34.828125 C 30.304688 35.25 30.40625 35.660156 30.429688 36.082031 C 30.441406 36.28125 30.386719 36.488281 30.402344 36.683594 C 30.402344 36.71875 30.410156 36.757812 30.421875 36.792969 C 30.457031 36.914062 30.527344 37.039062 30.585938 37.136719 C 30.941406 37.71875 31.691406 38.042969 32.277344 37.574219 C 32.277344 37.574219 32.28125 37.574219 32.28125 37.574219 C 32.285156 37.566406 32.292969 37.5625 32.300781 37.558594 C 32.394531 37.03125 32.507812 36.515625 32.46875 35.972656 C 32.433594 35.367188 32.308594 34.785156 32.191406 34.191406 " fill-opacity="1" fill-rule="nonzero"/><path fill="#012243" d="M 23.457031 18.507812 L 23.421875 18.503906 C 23.441406 18.507812 23.457031 18.507812 23.457031 18.511719 L 23.457031 18.507812 " fill-opacity="1" fill-rule="nonzero"/><path fill="#012243" d="M 18.953125 22.417969 L 18.964844 22.417969 L 18.976562 22.414062 C 19.015625 22.402344 19.054688 22.390625 19.097656 22.378906 L 19.113281 22.371094 L 19.132812 22.359375 C 19.25 22.257812 19.179688 22.074219 19.125 21.925781 L 19.101562 21.859375 L 19.023438 21.886719 C 19.011719 21.890625 19.003906 21.894531 18.988281 21.902344 C 18.921875 21.925781 18.839844 21.953125 18.757812 21.972656 L 18.707031 21.984375 L 18.714844 22.039062 C 18.75 22.28125 18.832031 22.410156 18.953125 22.417969 " fill-opacity="1" fill-rule="nonzero"/><path fill="#012243" d="M 19.683594 20.957031 C 19.777344 20.914062 19.886719 20.855469 19.988281 20.78125 C 20.097656 20.707031 20.179688 20.601562 20.265625 20.46875 C 20.328125 20.367188 20.378906 20.257812 20.390625 20.164062 C 20.40625 20.070312 20.371094 20 20.3125 19.945312 L 20.242188 19.878906 L 20.300781 19.820312 C 20.527344 19.617188 20.722656 19.589844 20.730469 19.621094 C 20.746094 19.648438 20.621094 19.71875 20.480469 19.871094 C 20.507812 19.898438 20.527344 19.925781 20.546875 19.960938 C 20.582031 20.023438 20.59375 20.101562 20.589844 20.179688 C 20.582031 20.328125 20.519531 20.460938 20.441406 20.585938 C 20.398438 20.65625 20.339844 20.726562 20.285156 20.789062 C 20.257812 20.816406 20.226562 20.84375 20.195312 20.871094 C 20.164062 20.898438 20.128906 20.917969 20.097656 20.941406 C 19.96875 21.023438 19.84375 21.066406 19.738281 21.097656 C 19.535156 21.15625 19.402344 21.179688 19.390625 21.148438 C 19.378906 21.125 19.492188 21.050781 19.683594 20.957031 Z M 20.84375 21.78125 C 20.871094 21.78125 20.898438 21.785156 20.925781 21.785156 C 20.953125 21.789062 20.960938 21.789062 20.992188 21.785156 C 21.105469 21.785156 21.207031 21.777344 21.320312 21.757812 C 21.433594 21.734375 21.542969 21.699219 21.644531 21.636719 C 21.695312 21.613281 21.742188 21.566406 21.777344 21.53125 C 21.796875 21.507812 21.828125 21.476562 21.835938 21.457031 C 21.847656 21.429688 21.863281 21.414062 21.875 21.382812 C 21.921875 21.28125 21.933594 21.15625 21.929688 21.035156 C 21.929688 20.980469 21.925781 20.90625 21.921875 20.859375 C 21.914062 20.828125 21.910156 20.796875 21.902344 20.78125 C 21.898438 20.761719 21.890625 20.738281 21.878906 20.71875 C 21.835938 20.636719 21.757812 20.570312 21.675781 20.515625 C 21.636719 20.492188 21.589844 20.464844 21.550781 20.445312 C 21.507812 20.417969 21.46875 20.402344 21.425781 20.375 C 21.382812 20.355469 21.34375 20.324219 21.308594 20.296875 C 21.273438 20.261719 21.242188 20.230469 21.222656 20.191406 C 21.179688 20.117188 21.175781 20.046875 21.171875 19.992188 C 21.171875 19.886719 21.191406 19.832031 21.203125 19.832031 C 21.21875 19.832031 21.230469 19.886719 21.253906 19.980469 C 21.265625 20.027344 21.285156 20.082031 21.320312 20.128906 C 21.355469 20.171875 21.414062 20.210938 21.492188 20.242188 C 21.527344 20.261719 21.574219 20.277344 21.621094 20.292969 C 21.671875 20.316406 21.714844 20.335938 21.765625 20.367188 C 21.863281 20.417969 21.976562 20.496094 22.046875 20.625 C 22.085938 20.679688 22.113281 20.773438 22.121094 20.828125 L 22.125 20.847656 L 22.125 20.863281 L 22.128906 20.875 L 22.128906 20.882812 L 22.132812 20.929688 C 22.136719 20.964844 22.136719 20.996094 22.136719 21.03125 C 22.140625 21.167969 22.132812 21.320312 22.066406 21.46875 C 22.054688 21.507812 22.027344 21.546875 22.003906 21.582031 C 21.980469 21.625 21.960938 21.640625 21.9375 21.667969 C 21.871094 21.730469 21.820312 21.777344 21.75 21.816406 C 21.621094 21.890625 21.480469 21.929688 21.351562 21.949219 C 21.226562 21.964844 21.097656 21.96875 20.992188 21.960938 C 20.96875 21.960938 20.925781 21.957031 20.90625 21.953125 C 20.878906 21.949219 20.855469 21.945312 20.832031 21.941406 C 20.789062 21.929688 20.746094 21.9375 20.75 21.9375 L 20.742188 21.941406 C 20.742188 21.953125 20.746094 21.980469 20.734375 22.015625 L 20.730469 22.027344 L 20.722656 22.039062 L 20.722656 22.042969 L 20.714844 22.050781 L 20.699219 22.074219 C 20.691406 22.089844 20.679688 22.101562 20.671875 22.117188 C 20.636719 22.164062 20.597656 22.199219 20.5625 22.226562 C 20.507812 22.253906 20.457031 22.28125 20.40625 22.308594 C 20.398438 22.308594 20.394531 22.308594 20.394531 22.304688 C 20.382812 22.292969 20.429688 22.253906 20.488281 22.1875 C 20.515625 22.15625 20.542969 22.113281 20.574219 22.054688 C 20.582031 22.039062 20.589844 22.023438 20.597656 22.011719 L 20.609375 21.984375 L 20.609375 21.980469 L 20.613281 21.976562 L 20.605469 21.972656 L 20.601562 21.984375 L 20.597656 21.984375 C 20.601562 21.980469 20.605469 21.972656 20.605469 21.972656 C 20.605469 21.972656 20.605469 21.964844 20.601562 21.933594 C 20.601562 21.917969 20.601562 21.890625 20.617188 21.871094 C 20.628906 21.847656 20.640625 21.835938 20.652344 21.824219 C 20.730469 21.769531 20.792969 21.78125 20.84375 21.78125 Z M 21.519531 19.480469 C 21.535156 19.460938 21.550781 19.449219 21.566406 19.433594 C 21.582031 19.429688 21.59375 19.421875 21.601562 19.417969 C 21.625 19.410156 21.636719 19.410156 21.640625 19.414062 C 21.644531 19.421875 21.640625 19.433594 21.628906 19.453125 C 21.625 19.460938 21.617188 19.472656 21.605469 19.484375 C 21.601562 19.496094 21.59375 19.511719 21.589844 19.523438 C 21.578125 19.554688 21.566406 19.59375 21.582031 19.632812 C 21.59375 19.667969 21.625 19.710938 21.675781 19.742188 C 21.722656 19.769531 21.785156 19.789062 21.84375 19.78125 C 21.90625 19.777344 21.964844 19.746094 22 19.691406 C 22.027344 19.648438 22.027344 19.589844 21.984375 19.519531 C 21.945312 19.453125 21.875 19.390625 21.804688 19.359375 C 21.796875 19.359375 21.792969 19.367188 21.785156 19.367188 L 21.855469 19.1875 L 21.8125 19.1875 L 21.8125 19.171875 L 21.835938 19.140625 L 21.886719 19.152344 C 21.890625 19.152344 21.890625 19.15625 21.894531 19.160156 C 21.933594 19.175781 21.972656 19.191406 22.007812 19.210938 C 22.058594 19.230469 22.105469 19.253906 22.148438 19.28125 C 22.191406 19.3125 22.234375 19.339844 22.277344 19.367188 L 22.308594 19.386719 L 22.320312 19.394531 L 22.328125 19.402344 L 22.34375 19.414062 C 22.359375 19.429688 22.375 19.445312 22.394531 19.46875 C 22.46875 19.550781 22.511719 19.625 22.558594 19.6875 C 22.597656 19.75 22.644531 19.800781 22.6875 19.835938 L 22.765625 19.902344 L 22.699219 19.957031 C 22.5625 20.070312 22.425781 20.089844 22.335938 20.101562 C 22.246094 20.101562 22.199219 20.089844 22.199219 20.074219 C 22.199219 20.058594 22.246094 20.042969 22.320312 20.015625 C 22.378906 19.992188 22.453125 19.960938 22.523438 19.910156 C 22.421875 19.816406 22.34375 19.691406 22.257812 19.605469 C 22.25 19.597656 22.230469 19.582031 22.214844 19.570312 C 22.21875 19.582031 22.21875 19.59375 22.21875 19.605469 C 22.222656 19.675781 22.199219 19.746094 22.160156 19.804688 C 22.082031 19.90625 21.960938 19.957031 21.851562 19.957031 C 21.742188 19.960938 21.652344 19.914062 21.585938 19.859375 C 21.519531 19.800781 21.472656 19.726562 21.464844 19.652344 C 21.457031 19.574219 21.492188 19.515625 21.519531 19.480469 Z M 22.285156 18.992188 C 22.304688 18.96875 22.472656 19.082031 22.726562 19.28125 C 22.859375 19.371094 23.019531 19.480469 23.1875 19.605469 C 23.359375 19.726562 23.5625 19.839844 23.761719 20.015625 C 23.808594 20.0625 23.855469 20.105469 23.898438 20.15625 C 23.921875 20.183594 23.9375 20.203125 23.960938 20.234375 L 24.011719 20.304688 C 24.078125 20.402344 24.140625 20.496094 24.199219 20.582031 C 24.320312 20.757812 24.429688 20.914062 24.515625 21.046875 C 24.613281 21.179688 24.6875 21.300781 24.714844 21.394531 C 24.738281 21.488281 24.738281 21.542969 24.726562 21.542969 C 24.710938 21.546875 24.679688 21.5 24.640625 21.429688 C 24.589844 21.355469 24.515625 21.261719 24.402344 21.144531 C 24.296875 21.019531 24.171875 20.867188 24.042969 20.699219 C 23.976562 20.613281 23.910156 20.519531 23.84375 20.429688 L 23.789062 20.355469 L 23.738281 20.292969 C 23.703125 20.25 23.660156 20.214844 23.621094 20.175781 C 23.449219 20.019531 23.242188 19.898438 23.070312 19.761719 C 22.902344 19.625 22.75 19.5 22.628906 19.390625 C 22.398438 19.164062 22.265625 19.015625 22.285156 18.992188 Z M 22.824219 18.945312 L 22.804688 18.933594 C 22.804688 18.921875 22.796875 18.894531 22.804688 18.875 C 22.824219 18.800781 22.851562 18.761719 22.878906 18.71875 C 22.910156 18.679688 22.9375 18.640625 22.96875 18.609375 C 22.996094 18.574219 23.023438 18.542969 23.050781 18.511719 C 23.078125 18.484375 23.101562 18.449219 23.097656 18.441406 L 23.109375 18.40625 C 23.117188 18.386719 23.128906 18.359375 23.152344 18.339844 C 23.175781 18.320312 23.199219 18.308594 23.214844 18.304688 L 23.242188 18.296875 L 23.253906 18.296875 L 23.253906 18.292969 L 23.257812 18.292969 L 23.285156 18.289062 L 23.289062 18.292969 C 23.300781 18.296875 23.308594 18.296875 23.320312 18.300781 C 23.339844 18.308594 23.359375 18.3125 23.378906 18.320312 C 23.410156 18.339844 23.421875 18.351562 23.445312 18.367188 C 23.515625 18.417969 23.570312 18.476562 23.617188 18.53125 C 23.867188 18.753906 23.957031 19.023438 24.011719 19.191406 C 24.066406 19.367188 24.085938 19.46875 24.066406 19.476562 C 24.046875 19.484375 23.992188 19.394531 23.914062 19.234375 C 23.828125 19.078125 23.71875 18.847656 23.5 18.667969 L 23.5 18.664062 C 23.445312 18.613281 23.398438 18.5625 23.34375 18.523438 C 23.339844 18.519531 23.339844 18.515625 23.335938 18.515625 C 23.324219 18.515625 23.308594 18.519531 23.308594 18.519531 L 23.304688 18.523438 L 23.308594 18.523438 L 23.308594 18.527344 C 23.308594 18.527344 23.308594 18.523438 23.304688 18.527344 C 23.285156 18.585938 23.238281 18.613281 23.214844 18.644531 C 23.1875 18.679688 23.160156 18.710938 23.132812 18.746094 C 23.101562 18.777344 23.082031 18.808594 23.058594 18.84375 C 23.046875 18.859375 23.039062 18.875 23.035156 18.890625 C 23.042969 18.894531 23.097656 18.921875 23.132812 18.933594 L 23.15625 18.933594 C 23.15625 18.9375 23.148438 18.9375 23.132812 18.933594 L 23.078125 18.929688 L 23.046875 18.917969 C 23.046875 18.910156 23.027344 18.921875 23.023438 18.921875 C 23.027344 18.917969 23.03125 18.902344 23.035156 18.890625 C 23.035156 18.890625 23.03125 18.890625 23.03125 18.890625 L 23 18.890625 L 23 18.902344 C 23 18.90625 23 18.921875 23 18.925781 C 23.003906 18.929688 23.007812 18.929688 23.007812 18.933594 C 23.019531 18.949219 23.039062 18.964844 23.0625 18.984375 C 23.109375 19.015625 23.164062 19.046875 23.21875 19.078125 C 23.335938 19.136719 23.449219 19.179688 23.566406 19.261719 C 23.664062 19.34375 23.757812 19.421875 23.835938 19.5 C 23.910156 19.585938 23.976562 19.660156 24.035156 19.734375 C 24.261719 20.035156 24.359375 20.238281 24.339844 20.253906 C 24.316406 20.277344 24.167969 20.097656 23.921875 19.832031 C 23.859375 19.769531 23.789062 19.699219 23.714844 19.628906 C 23.636719 19.558594 23.542969 19.492188 23.453125 19.421875 C 23.375 19.367188 23.246094 19.320312 23.125 19.261719 C 23.066406 19.230469 23 19.199219 22.9375 19.152344 C 22.90625 19.128906 22.871094 19.101562 22.839844 19.058594 L 22.816406 19.027344 C 22.8125 19.011719 22.804688 18.996094 22.800781 18.984375 L 22.796875 18.96875 L 22.828125 18.96875 L 22.859375 18.953125 L 22.859375 18.949219 Z M 24.527344 20.375 C 24.550781 20.359375 24.683594 20.515625 24.824219 20.816406 C 24.894531 20.964844 24.953125 21.152344 25.007812 21.363281 C 25.054688 21.574219 25.089844 21.8125 25.097656 22.066406 C 25.101562 22.316406 25.082031 22.558594 25.042969 22.773438 C 25 22.988281 24.949219 23.175781 24.882812 23.328125 C 24.757812 23.640625 24.628906 23.792969 24.605469 23.78125 C 24.578125 23.769531 24.660156 23.582031 24.742188 23.28125 C 24.785156 23.128906 24.820312 22.945312 24.851562 22.742188 C 24.875 22.539062 24.890625 22.3125 24.886719 22.070312 C 24.878906 21.832031 24.851562 21.605469 24.816406 21.402344 C 24.777344 21.199219 24.734375 21.015625 24.679688 20.867188 C 24.589844 20.566406 24.5 20.390625 24.527344 20.375 Z M 24.480469 25.171875 C 24.402344 25.457031 24.277344 25.785156 24.148438 26.152344 C 24.023438 26.53125 23.820312 26.910156 23.660156 27.324219 C 23.5 27.730469 23.398438 28.144531 23.4375 28.507812 C 23.445312 28.550781 23.445312 28.589844 23.457031 28.636719 C 23.46875 28.683594 23.480469 28.726562 23.488281 28.769531 C 23.515625 28.851562 23.542969 28.925781 23.585938 29 C 23.664062 29.136719 23.765625 29.257812 23.863281 29.367188 C 23.960938 29.476562 24.050781 29.582031 24.121094 29.679688 C 24.1875 29.777344 24.238281 29.871094 24.273438 29.949219 C 24.335938 30.113281 24.335938 30.203125 24.324219 30.207031 C 24.308594 30.214844 24.277344 30.121094 24.199219 29.984375 C 24.15625 29.917969 24.101562 29.835938 24.027344 29.753906 C 23.953125 29.667969 23.859375 29.574219 23.753906 29.472656 C 23.648438 29.367188 23.53125 29.246094 23.433594 29.085938 C 23.382812 29.011719 23.34375 28.917969 23.3125 28.824219 C 23.296875 28.78125 23.285156 28.734375 23.273438 28.6875 C 23.257812 28.640625 23.253906 28.585938 23.246094 28.535156 C 23.1875 28.117188 23.296875 27.671875 23.460938 27.246094 C 23.625 26.820312 23.835938 26.441406 23.964844 26.085938 C 24.105469 25.722656 24.242188 25.398438 24.339844 25.121094 C 24.539062 24.570312 24.671875 24.230469 24.703125 24.238281 C 24.730469 24.246094 24.644531 24.601562 24.480469 25.171875 Z M 22.667969 25.167969 C 22.628906 25.242188 22.585938 25.316406 22.542969 25.398438 C 22.457031 25.554688 22.371094 25.730469 22.277344 25.910156 C 22.097656 26.273438 21.90625 26.6875 21.722656 27.109375 C 21.683594 27.21875 21.628906 27.332031 21.605469 27.433594 C 21.589844 27.488281 21.574219 27.539062 21.558594 27.589844 C 21.542969 27.644531 21.535156 27.699219 21.523438 27.75 C 21.476562 27.960938 21.46875 28.167969 21.46875 28.363281 C 21.472656 28.464844 21.484375 28.558594 21.492188 28.652344 C 21.511719 28.742188 21.53125 28.832031 21.550781 28.917969 C 21.582031 28.996094 21.609375 29.074219 21.636719 29.148438 C 21.675781 29.222656 21.707031 29.300781 21.746094 29.363281 C 21.890625 29.625 22.066406 29.792969 22.199219 29.898438 C 22.265625 29.953125 22.324219 29.988281 22.359375 30.015625 C 22.394531 30.039062 22.414062 30.058594 22.410156 30.066406 C 22.40625 30.070312 22.382812 30.066406 22.339844 30.050781 C 22.292969 30.035156 22.230469 30.011719 22.15625 29.964844 C 22.003906 29.878906 21.785156 29.714844 21.617188 29.4375 C 21.570312 29.371094 21.535156 29.300781 21.492188 29.226562 C 21.457031 29.144531 21.421875 29.054688 21.382812 28.96875 C 21.359375 28.875 21.335938 28.78125 21.308594 28.683594 C 21.296875 28.582031 21.28125 28.480469 21.273438 28.375 C 21.265625 28.160156 21.273438 27.9375 21.320312 27.710938 C 21.332031 27.65625 21.339844 27.597656 21.355469 27.539062 C 21.371094 27.480469 21.386719 27.425781 21.40625 27.367188 C 21.433594 27.246094 21.484375 27.144531 21.523438 27.035156 C 21.71875 26.589844 21.910156 26.1875 22.105469 25.820312 C 22.203125 25.640625 22.292969 25.464844 22.390625 25.3125 C 22.4375 25.230469 22.484375 25.15625 22.527344 25.082031 C 22.578125 25.011719 22.621094 24.945312 22.664062 24.878906 C 23.019531 24.359375 23.300781 24.097656 23.320312 24.113281 C 23.347656 24.132812 23.101562 24.433594 22.792969 24.960938 C 22.753906 25.027344 22.710938 25.09375 22.667969 25.167969 Z M 23.488281 21.824219 C 23.484375 21.859375 23.480469 21.898438 23.46875 21.949219 C 23.460938 21.996094 23.441406 22.046875 23.421875 22.109375 C 23.382812 22.226562 23.316406 22.363281 23.199219 22.496094 C 23.082031 22.628906 22.878906 22.71875 22.675781 22.726562 C 22.472656 22.730469 22.296875 22.6875 22.140625 22.640625 C 21.988281 22.59375 21.855469 22.539062 21.746094 22.492188 C 21.53125 22.398438 21.398438 22.328125 21.40625 22.300781 C 21.417969 22.273438 21.5625 22.289062 21.792969 22.347656 C 21.910156 22.378906 22.046875 22.414062 22.195312 22.449219 C 22.339844 22.484375 22.507812 22.519531 22.664062 22.515625 C 22.828125 22.507812 22.964844 22.449219 23.0625 22.355469 C 23.160156 22.257812 23.234375 22.148438 23.285156 22.046875 C 23.3125 21.996094 23.335938 21.949219 23.359375 21.910156 C 23.375 21.867188 23.394531 21.828125 23.410156 21.800781 C 23.441406 21.742188 23.464844 21.710938 23.476562 21.714844 C 23.492188 21.71875 23.496094 21.757812 23.488281 21.824219 Z M 19.671875 21.328125 C 19.882812 21.28125 20.191406 21.324219 20.257812 21.578125 C 20.351562 21.945312 20.179688 22.242188 19.851562 22.414062 C 19.746094 22.472656 19.632812 22.523438 19.519531 22.570312 C 19.394531 22.589844 19.269531 22.609375 19.140625 22.617188 C 19.035156 22.625 18.9375 22.621094 18.839844 22.671875 C 18.699219 22.738281 18.652344 22.832031 18.636719 22.980469 C 18.628906 23.042969 18.675781 23.097656 18.722656 23.128906 C 18.988281 23.308594 19.140625 23.019531 19.390625 23.078125 C 19.585938 23.125 19.667969 23.28125 19.894531 23.140625 C 20.082031 23.023438 20.171875 22.835938 20.375 22.722656 C 20.480469 22.664062 20.589844 22.601562 20.703125 22.546875 C 20.832031 22.542969 20.964844 22.558594 21.082031 22.566406 C 21.492188 22.597656 21.871094 22.816406 22.203125 23.070312 C 22.347656 23.128906 22.488281 23.171875 22.605469 23.179688 C 22.734375 23.1875 22.835938 23.15625 22.9375 23.089844 C 23.132812 22.957031 23.289062 22.726562 23.402344 22.539062 C 23.628906 22.144531 23.703125 21.785156 23.71875 21.515625 C 23.734375 21.246094 23.699219 21.054688 23.675781 20.933594 C 23.65625 20.8125 23.652344 20.75 23.675781 20.738281 C 23.699219 20.730469 23.746094 20.765625 23.816406 20.882812 C 23.882812 21 23.964844 21.203125 23.984375 21.515625 C 24.003906 21.824219 23.949219 22.242188 23.707031 22.707031 C 23.644531 22.820312 23.570312 22.9375 23.484375 23.054688 C 23.394531 23.171875 23.292969 23.292969 23.144531 23.398438 C 23.066406 23.449219 22.980469 23.496094 22.882812 23.523438 C 22.785156 23.550781 22.679688 23.558594 22.582031 23.554688 C 22.578125 23.554688 22.574219 23.550781 22.570312 23.550781 C 22.550781 23.582031 22.519531 23.609375 22.488281 23.628906 C 22.167969 24.828125 20.859375 25.605469 20.054688 26.46875 C 18.964844 27.644531 18.042969 29.15625 19.304688 30.570312 C 20.382812 30.953125 21.460938 30.933594 22.585938 30.988281 C 23.640625 31.039062 24.6875 31.097656 25.632812 30.566406 C 25.609375 29.867188 25.011719 29.476562 24.710938 28.898438 C 24.492188 28.484375 24.339844 28.019531 24.402344 27.542969 C 24.472656 27.015625 24.640625 26.535156 24.847656 26.046875 C 25.101562 25.449219 25.253906 24.875 25.371094 24.242188 C 25.621094 22.839844 25.789062 21.480469 25.109375 20.164062 C 24.675781 19.324219 24.070312 18.386719 23.148438 18.058594 C 23.152344 18.308594 23.027344 18.507812 22.742188 18.644531 C 22.496094 18.757812 22.222656 18.753906 21.964844 18.808594 C 21.511719 18.902344 21.085938 19.046875 20.671875 19.253906 C 20.425781 19.378906 20.1875 19.515625 19.917969 19.59375 C 19.644531 19.671875 19.296875 19.722656 19.066406 19.898438 C 18.90625 20.023438 18.894531 20.25 18.878906 20.472656 C 18.960938 20.214844 19.042969 20.082031 19.066406 20.089844 C 19.101562 20.097656 19.0625 20.261719 19.023438 20.507812 C 19.023438 20.535156 19.015625 20.566406 19.015625 20.601562 C 19.015625 20.632812 19.011719 20.664062 19.015625 20.695312 C 19.015625 20.730469 19.035156 20.753906 19.035156 20.769531 C 19.042969 20.789062 19.054688 20.808594 19.058594 20.808594 C 19.0625 20.808594 19.0625 20.808594 19.0625 20.808594 C 19.066406 20.804688 19.082031 20.800781 19.09375 20.785156 C 19.121094 20.765625 19.15625 20.734375 19.195312 20.699219 C 19.210938 20.683594 19.234375 20.667969 19.261719 20.648438 L 19.324219 20.613281 C 19.363281 20.589844 19.402344 20.5625 19.445312 20.539062 C 19.523438 20.492188 19.589844 20.4375 19.625 20.382812 C 19.644531 20.355469 19.65625 20.328125 19.664062 20.300781 L 19.6875 20.28125 L 19.675781 20.277344 L 19.671875 20.261719 L 19.664062 20.226562 C 19.664062 20.222656 19.65625 20.222656 19.65625 20.214844 C 19.648438 20.183594 19.605469 20.144531 19.554688 20.140625 C 19.542969 20.140625 19.53125 20.136719 19.519531 20.136719 C 19.507812 20.140625 19.492188 20.144531 19.480469 20.144531 C 19.472656 20.148438 19.410156 20.167969 19.410156 20.179688 C 19.378906 20.191406 19.351562 20.242188 19.332031 20.28125 C 19.3125 20.324219 19.292969 20.367188 19.277344 20.402344 C 19.242188 20.46875 19.203125 20.5 19.195312 20.492188 C 19.179688 20.480469 19.191406 20.445312 19.199219 20.375 C 19.203125 20.339844 19.207031 20.296875 19.21875 20.242188 C 19.234375 20.1875 19.25 20.121094 19.324219 20.054688 C 19.367188 20.015625 19.375 20.019531 19.425781 19.988281 C 19.449219 19.984375 19.472656 19.976562 19.492188 19.96875 C 19.519531 19.964844 19.542969 19.964844 19.570312 19.964844 C 19.671875 19.96875 19.789062 20.023438 19.839844 20.152344 C 19.847656 20.167969 19.855469 20.1875 19.855469 20.203125 L 19.863281 20.234375 L 19.863281 20.25 L 19.867188 20.253906 L 19.867188 20.28125 L 19.863281 20.328125 C 19.855469 20.386719 19.832031 20.445312 19.800781 20.496094 C 19.738281 20.597656 19.644531 20.664062 19.558594 20.71875 C 19.515625 20.746094 19.46875 20.773438 19.429688 20.796875 L 19.371094 20.832031 C 19.355469 20.835938 19.339844 20.847656 19.324219 20.863281 C 19.292969 20.886719 19.257812 20.917969 19.214844 20.953125 C 19.191406 20.964844 19.164062 20.984375 19.132812 20.996094 C 19.097656 21.007812 19.050781 21.015625 19 21 C 18.914062 20.964844 18.882812 20.886719 18.871094 20.859375 C 18.855469 20.820312 18.851562 20.789062 18.847656 20.761719 C 18.832031 20.820312 18.8125 20.878906 18.785156 20.929688 C 18.667969 21.121094 18.628906 21.460938 18.632812 21.703125 C 18.632812 21.613281 19.554688 21.355469 19.671875 21.328125 " fill-opacity="1" fill-rule="nonzero"/><path fill="#012243" d="M 33.863281 37.734375 C 34.210938 36.546875 34.066406 35.277344 33.808594 34.085938 C 33.523438 32.773438 33.144531 31.402344 32.105469 30.480469 C 32.042969 30.425781 31.785156 30.632812 31.777344 30.707031 C 31.765625 30.84375 31.988281 30.996094 32.054688 31.097656 C 32.199219 31.320312 32.304688 31.53125 32.390625 31.722656 C 32.558594 32.113281 32.648438 32.429688 32.710938 32.667969 C 32.835938 33.152344 32.851562 33.34375 32.824219 33.347656 C 32.796875 33.355469 32.738281 33.175781 32.585938 32.707031 C 32.503906 32.476562 32.402344 32.167969 32.230469 31.796875 C 32.144531 31.609375 32.039062 31.40625 31.902344 31.203125 C 31.773438 31.015625 31.613281 30.820312 31.402344 30.664062 C 31.375 30.695312 31.347656 30.726562 31.324219 30.753906 C 31.269531 30.828125 31.214844 30.90625 31.175781 30.988281 C 31.164062 31.011719 31.152344 31.035156 31.144531 31.0625 C 31.128906 31.105469 31.132812 31.085938 31.132812 31.105469 C 31.128906 31.109375 31.128906 31.117188 31.128906 31.121094 C 31.910156 31.8125 32.207031 32.941406 32.40625 33.925781 C 32.527344 34.527344 32.679688 35.136719 32.71875 35.753906 C 32.761719 36.402344 32.667969 36.960938 32.558594 37.585938 C 32.566406 37.59375 32.570312 37.601562 32.578125 37.613281 C 32.621094 37.691406 32.8125 37.808594 32.929688 37.863281 C 32.960938 37.878906 32.996094 37.894531 33.035156 37.90625 C 33.070312 37.570312 33.140625 37.277344 33.179688 37.011719 C 33.1875 36.941406 33.195312 36.871094 33.203125 36.800781 C 33.210938 36.730469 33.210938 36.664062 33.214844 36.597656 C 33.226562 36.464844 33.21875 36.339844 33.214844 36.222656 C 33.199219 35.746094 33.128906 35.375 33.078125 35.09375 C 32.976562 34.527344 32.945312 34.308594 32.976562 34.304688 C 33 34.296875 33.074219 34.503906 33.210938 35.066406 C 33.277344 35.347656 33.363281 35.71875 33.390625 36.214844 C 33.394531 36.335938 33.40625 36.46875 33.394531 36.605469 C 33.390625 36.671875 33.394531 36.742188 33.386719 36.816406 C 33.378906 36.886719 33.371094 36.960938 33.363281 37.039062 C 33.339844 37.203125 33.273438 37.386719 33.277344 37.554688 C 33.277344 37.695312 33.292969 37.675781 33.414062 37.738281 C 33.554688 37.8125 33.714844 37.773438 33.863281 37.734375 " fill-opacity="1" fill-rule="nonzero"/><path fill="#012243" d="M 20.636719 34.75 C 20.800781 34.609375 20.976562 34.488281 21.160156 34.390625 C 21.523438 34.199219 21.90625 34.089844 22.277344 34.078125 C 22.460938 34.066406 22.644531 34.085938 22.8125 34.121094 L 22.890625 34.140625 L 22.898438 34.140625 L 22.917969 34.148438 L 22.945312 34.160156 C 22.984375 34.171875 23.019531 34.183594 23.054688 34.199219 C 23.125 34.226562 23.195312 34.246094 23.269531 34.292969 C 23.339844 34.332031 23.410156 34.371094 23.472656 34.410156 C 23.53125 34.457031 23.589844 34.503906 23.644531 34.546875 C 23.789062 34.652344 23.871094 34.800781 24.035156 34.59375 C 24.101562 34.511719 24.117188 34.375 24.136719 34.269531 C 24.175781 34.039062 24.160156 33.804688 24.183594 33.570312 C 24.195312 33.429688 24.34375 33.347656 24.46875 33.421875 C 24.710938 33.5625 25.457031 34.464844 25.554688 33.96875 C 25.578125 33.855469 25.746094 33.800781 25.835938 33.867188 C 26.066406 34.035156 26.425781 34.070312 26.804688 34.003906 C 26.605469 33.582031 26.6875 33.183594 26.878906 32.800781 C 26.863281 32.78125 26.847656 32.761719 26.828125 32.742188 C 26.617188 32.535156 26.339844 32.390625 26.140625 32.171875 C 25.984375 31.996094 25.882812 31.832031 25.835938 31.597656 C 25.832031 31.582031 25.828125 31.5625 25.828125 31.542969 C 25.695312 31.648438 25.554688 31.726562 25.417969 31.78125 C 25.171875 31.878906 24.945312 31.925781 24.742188 31.949219 C 24.328125 31.996094 24.015625 31.980469 23.773438 31.96875 C 23.296875 31.9375 23.117188 31.90625 23.117188 31.871094 C 23.117188 31.835938 23.300781 31.808594 23.777344 31.796875 C 24.011719 31.785156 24.324219 31.78125 24.707031 31.722656 C 24.902344 31.699219 25.109375 31.648438 25.324219 31.558594 C 25.523438 31.476562 25.722656 31.347656 25.875 31.148438 C 25.886719 31.058594 25.882812 30.96875 25.839844 30.886719 C 24.898438 31.421875 23.867188 31.425781 22.804688 31.375 C 21.578125 31.316406 20.390625 31.351562 19.21875 30.9375 C 19.210938 30.941406 19.203125 30.945312 19.195312 30.949219 C 19.144531 30.976562 18.996094 31.039062 19 31.117188 L 19.019531 31.105469 C 19.171875 31.382812 19.46875 31.523438 19.738281 31.609375 C 20.011719 31.695312 20.277344 31.734375 20.515625 31.757812 C 20.996094 31.808594 21.375 31.804688 21.667969 31.808594 C 22.246094 31.808594 22.472656 31.835938 22.472656 31.871094 C 22.472656 31.902344 22.253906 31.9375 21.671875 31.980469 C 21.378906 32 20.992188 32.019531 20.496094 31.984375 C 20.246094 31.964844 19.96875 31.929688 19.667969 31.839844 C 19.535156 31.800781 19.398438 31.746094 19.265625 31.671875 C 18.953125 32.398438 17.71875 33.191406 18.117188 34.003906 L 18.125 34.003906 C 18.125 34.015625 18.128906 34.03125 18.136719 34.042969 C 18.148438 34.066406 18.152344 34.089844 18.15625 34.109375 C 18.226562 34.300781 18.390625 34.449219 18.578125 34.558594 C 18.800781 34.6875 19.050781 34.769531 19.292969 34.832031 C 19.675781 34.925781 20.042969 34.976562 20.382812 35.011719 C 20.394531 35.003906 20.398438 34.996094 20.40625 34.984375 C 20.46875 34.910156 20.554688 34.824219 20.636719 34.75 " fill-opacity="1" fill-rule="nonzero"/><path fill="#012243" d="M 19.453125 22.238281 L 19.476562 22.25 L 19.5 22.238281 C 19.546875 22.21875 19.601562 22.195312 19.652344 22.171875 L 19.667969 22.164062 L 19.675781 22.144531 C 19.714844 22.070312 19.71875 21.980469 19.6875 21.914062 L 19.65625 21.855469 C 19.636719 21.8125 19.613281 21.773438 19.59375 21.730469 L 19.570312 21.683594 L 19.523438 21.699219 C 19.4375 21.730469 19.347656 21.761719 19.265625 21.796875 L 19.21875 21.828125 L 19.238281 21.882812 C 19.277344 21.992188 19.320312 22.121094 19.410156 22.207031 C 19.417969 22.214844 19.433594 22.230469 19.453125 22.238281 " fill-opacity="1" fill-rule="nonzero"/><g clip-path="url(#4b52e89307)"><path fill="#012243" d="M 44.207031 36.691406 C 42.636719 37.804688 40.578125 38.042969 38.707031 37.96875 C 37.640625 37.929688 36.550781 37.871094 35.507812 37.632812 C 35.097656 37.539062 34.722656 37.40625 34.359375 37.246094 C 34.320312 37.488281 34.265625 37.722656 34.1875 37.957031 C 34.160156 38.054688 34.082031 38.089844 34.007812 38.085938 C 33.851562 38.121094 33.703125 38.148438 33.554688 38.144531 C 33.613281 38.191406 33.667969 38.230469 33.71875 38.265625 C 33.738281 38.277344 33.753906 38.292969 33.765625 38.308594 C 35.777344 38.960938 37.8125 39.195312 39.925781 39.125 C 41.105469 39.085938 45.175781 38.890625 44.207031 36.691406 " fill-opacity="1" fill-rule="nonzero"/></g><path fill="#012243" d="M 29.789062 33.886719 C 29.726562 33.675781 29.664062 33.445312 29.539062 33.257812 C 29.488281 33.179688 29.425781 33.082031 29.328125 33.058594 C 29.242188 33.035156 28.953125 33.136719 28.902344 33.03125 C 28.957031 33.140625 28.992188 33.242188 29.019531 33.335938 C 29.078125 33.519531 29.105469 33.667969 29.121094 33.78125 C 29.15625 34.007812 29.148438 34.09375 29.125 34.097656 C 29.101562 34.105469 29.058594 34.023438 28.992188 33.8125 C 28.960938 33.703125 28.921875 33.5625 28.859375 33.390625 C 28.824219 33.304688 28.785156 33.210938 28.734375 33.113281 C 28.707031 33.0625 28.675781 33.011719 28.636719 32.960938 C 28.636719 32.96875 28.632812 32.980469 28.632812 32.988281 C 28.640625 33.015625 28.640625 33.046875 28.636719 33.082031 C 28.625 33.144531 28.605469 33.203125 28.582031 33.261719 C 28.574219 33.289062 28.5625 33.3125 28.550781 33.328125 C 28.324219 33.785156 27.757812 34.058594 27.304688 34.21875 C 26.816406 34.386719 26.390625 34.523438 25.957031 34.363281 C 25.996094 34.496094 26.03125 34.609375 26.058594 34.710938 C 26.097656 34.863281 26.121094 34.980469 26.140625 35.074219 C 26.171875 35.253906 26.167969 35.328125 26.140625 35.332031 C 26.117188 35.335938 26.074219 35.277344 26.007812 35.105469 C 25.976562 35.023438 25.941406 34.90625 25.894531 34.761719 C 25.859375 34.667969 25.820312 34.558594 25.78125 34.433594 C 25.738281 34.492188 25.691406 34.53125 25.636719 34.550781 C 25.71875 34.746094 25.738281 34.898438 25.757812 34.996094 C 25.773438 35.128906 25.757812 35.179688 25.734375 35.1875 C 25.707031 35.195312 25.671875 35.148438 25.628906 35.027344 C 25.582031 34.929688 25.542969 34.765625 25.4375 34.558594 C 25.246094 34.519531 25.027344 34.359375 24.824219 34.1875 C 24.828125 34.203125 24.835938 34.222656 24.839844 34.238281 C 24.890625 34.386719 24.921875 34.511719 24.945312 34.601562 C 24.980469 34.789062 24.96875 34.867188 24.929688 34.882812 C 24.886719 34.898438 24.824219 34.847656 24.730469 34.679688 C 24.667969 34.578125 24.601562 34.421875 24.507812 34.222656 C 24.464844 34.582031 24.355469 34.929688 24.039062 35.035156 C 24.113281 35.160156 24.167969 35.277344 24.199219 35.386719 C 24.222656 35.46875 24.242188 35.539062 24.261719 35.601562 C 24.269531 35.667969 24.273438 35.71875 24.277344 35.761719 C 24.28125 35.851562 24.277344 35.898438 24.265625 35.902344 C 24.25 35.902344 24.226562 35.863281 24.195312 35.78125 C 24.179688 35.742188 24.160156 35.695312 24.140625 35.636719 C 24.113281 35.582031 24.082031 35.519531 24.046875 35.449219 C 23.90625 35.167969 23.734375 34.9375 23.472656 34.757812 C 23.421875 34.722656 23.371094 34.6875 23.320312 34.652344 C 23.265625 34.625 23.207031 34.597656 23.152344 34.570312 C 23.101562 34.539062 23.027344 34.515625 22.953125 34.496094 C 22.917969 34.484375 22.878906 34.472656 22.84375 34.460938 L 22.824219 34.453125 C 22.824219 34.453125 22.816406 34.453125 22.816406 34.453125 L 22.804688 34.449219 L 22.75 34.441406 C 22.609375 34.417969 22.457031 34.414062 22.300781 34.429688 C 21.988281 34.453125 21.65625 34.558594 21.347656 34.734375 C 21.195312 34.824219 21.042969 34.929688 20.910156 35.054688 C 20.84375 35.117188 20.785156 35.171875 20.714844 35.257812 C 20.660156 35.324219 20.601562 35.398438 20.5625 35.480469 C 20.378906 35.792969 20.34375 36.191406 20.429688 36.585938 C 20.46875 36.789062 20.535156 36.980469 20.621094 37.164062 C 20.640625 37.210938 20.660156 37.253906 20.683594 37.300781 C 20.703125 37.34375 20.730469 37.394531 20.757812 37.441406 C 20.800781 37.511719 20.855469 37.605469 20.914062 37.675781 C 21.136719 37.988281 21.4375 38.210938 21.761719 38.324219 C 21.921875 38.382812 22.089844 38.410156 22.253906 38.414062 C 22.335938 38.421875 22.417969 38.414062 22.496094 38.410156 C 22.578125 38.398438 22.660156 38.390625 22.730469 38.375 C 22.769531 38.363281 22.804688 38.355469 22.84375 38.347656 C 22.882812 38.335938 22.921875 38.324219 22.960938 38.308594 L 23.019531 38.292969 L 23.070312 38.273438 C 23.105469 38.257812 23.140625 38.246094 23.175781 38.234375 C 23.3125 38.175781 23.441406 38.113281 23.550781 38.039062 C 23.773438 37.886719 23.933594 37.703125 24.046875 37.519531 C 24.15625 37.332031 24.21875 37.148438 24.261719 37 C 24.34375 36.695312 24.367188 36.511719 24.402344 36.515625 C 24.425781 36.515625 24.460938 36.695312 24.425781 37.03125 C 24.421875 37.046875 24.417969 37.0625 24.417969 37.078125 C 24.796875 36.984375 25.0625 37.289062 25.273438 37.625 C 25.285156 37.515625 25.285156 37.40625 25.277344 37.300781 C 25.265625 37.109375 25.242188 36.933594 25.210938 36.773438 C 25.152344 36.460938 25.089844 36.210938 25.050781 36.019531 C 24.972656 35.632812 24.980469 35.472656 25.023438 35.464844 C 25.070312 35.457031 25.136719 35.585938 25.273438 35.957031 C 25.335938 36.140625 25.421875 36.386719 25.5 36.714844 C 25.539062 36.878906 25.574219 37.066406 25.59375 37.277344 C 25.59375 37.320312 25.597656 37.371094 25.601562 37.414062 C 25.722656 37.160156 25.867188 36.929688 26.039062 36.851562 C 26.035156 36.792969 26.03125 36.734375 26.027344 36.679688 C 26.007812 36.550781 25.988281 36.441406 25.972656 36.335938 C 25.9375 36.132812 25.910156 35.972656 25.890625 35.847656 C 25.851562 35.601562 25.851562 35.503906 25.878906 35.5 C 25.902344 35.492188 25.949219 35.578125 26.019531 35.820312 C 26.054688 35.9375 26.097656 36.097656 26.148438 36.304688 C 26.164062 36.410156 26.1875 36.527344 26.210938 36.65625 C 26.214844 36.710938 26.21875 36.769531 26.226562 36.832031 C 26.269531 36.84375 26.320312 36.863281 26.371094 36.902344 C 26.375 36.777344 26.359375 36.664062 26.347656 36.5625 C 26.320312 36.414062 26.296875 36.292969 26.285156 36.199219 C 26.257812 36.011719 26.273438 35.933594 26.296875 35.929688 C 26.324219 35.929688 26.355469 35.992188 26.414062 36.167969 C 26.445312 36.257812 26.480469 36.375 26.515625 36.53125 C 26.535156 36.613281 26.550781 36.707031 26.558594 36.816406 C 26.878906 36.527344 27.304688 36.46875 27.796875 36.417969 C 28.273438 36.371094 28.902344 36.378906 29.300781 36.695312 C 29.316406 36.707031 29.335938 36.71875 29.355469 36.742188 C 29.398438 36.785156 29.445312 36.832031 29.480469 36.882812 C 29.488281 36.890625 29.492188 36.898438 29.496094 36.910156 C 29.5 36.53125 29.46875 36.207031 29.4375 35.929688 C 29.394531 35.574219 29.347656 35.296875 29.3125 35.085938 C 29.242188 34.660156 29.226562 34.496094 29.253906 34.488281 C 29.28125 34.484375 29.339844 34.636719 29.445312 35.058594 C 29.496094 35.269531 29.554688 35.546875 29.609375 35.910156 C 29.652344 36.1875 29.683594 36.511719 29.683594 36.890625 C 29.777344 36.757812 29.902344 36.660156 30.066406 36.65625 C 30.085938 36.640625 30.109375 36.625 30.140625 36.621094 C 30.246094 36.070312 30.070312 35.421875 29.992188 34.886719 C 29.945312 34.550781 29.890625 34.214844 29.789062 33.886719 " fill-opacity="1" fill-rule="nonzero"/><path fill="#012243" d="M 18.386719 34.886719 C 18.25 34.804688 18.117188 34.707031 17.996094 34.570312 C 17.96875 34.535156 17.941406 34.5 17.914062 34.460938 C 16.910156 35.257812 19.28125 35.960938 19.773438 36.085938 C 19.839844 36.101562 19.902344 36.117188 19.964844 36.132812 C 19.964844 36.070312 19.96875 36.011719 19.976562 35.953125 C 20.003906 35.738281 20.066406 35.53125 20.164062 35.34375 C 19.863281 35.316406 19.542969 35.269531 19.207031 35.191406 C 18.941406 35.125 18.664062 35.042969 18.386719 34.886719 " fill-opacity="1" fill-rule="nonzero"/></svg>