<svg xmlns="http://www.w3.org/2000/svg" xmlns:xlink="http://www.w3.org/1999/xlink" width="188" zoomAndPan="magnify" viewBox="0 0 141 91.5" height="122" preserveAspectRatio="xMidYMid meet" version="1.0"><defs><g/><clipPath id="b25d3412a7"><path d="M 121 63 L 140.617188 63 L 140.617188 85 L 121 85 Z M 121 63 " clip-rule="nonzero"/></clipPath><clipPath id="7cdf093b76"><path d="M 92.1875 32 L 111 32 L 111 40 L 92.1875 40 Z M 92.1875 32 " clip-rule="nonzero"/></clipPath><clipPath id="2bf39343b2"><path d="M 92.1875 15.464844 L 134.152344 15.464844 L 134.152344 53.78125 L 92.1875 53.78125 Z M 92.1875 15.464844 " clip-rule="nonzero"/></clipPath><clipPath id="34a4fd0a32"><path d="M 34 32 L 52.355469 32 L 52.355469 40 L 34 40 Z M 34 32 " clip-rule="nonzero"/></clipPath><clipPath id="be19f35902"><path d="M 10.398438 15.464844 L 52.355469 15.464844 L 52.355469 53.78125 L 10.398438 53.78125 Z M 10.398438 15.464844 " clip-rule="nonzero"/></clipPath><clipPath id="58b9f1dad4"><path d="M 42 8.644531 L 102.484375 8.644531 L 102.484375 57 L 42 57 Z M 42 8.644531 " clip-rule="nonzero"/></clipPath><clipPath id="f56947ce20"><path d="M 63.039062 0.207031 L 83.109375 0.207031 L 83.109375 13.589844 L 63.039062 13.589844 Z M 63.039062 0.207031 " clip-rule="nonzero"/></clipPath><clipPath id="8a10f73be9"><path d="M 46 2 L 99.175781 2 L 99.175781 54.910156 L 46 54.910156 Z M 46 2 " clip-rule="nonzero"/></clipPath></defs><g fill="#012243" fill-opacity="1"><g transform="translate(9.806499, 84.277387)"><g><path d="M 16.90625 -17.34375 L 10.828125 -17.34375 L 10.828125 0 L 6.515625 0 L 6.515625 -17.34375 L 0.4375 -17.34375 L 0.4375 -20.8125 L 16.90625 -20.8125 Z M 16.90625 -17.34375 "/></g></g></g><g fill="#012243" fill-opacity="1"><g transform="translate(27.136818, 84.277387)"><g><path d="M 9.359375 -6.1875 C 8.398438 -6.132812 7.597656 -6.046875 6.953125 -5.921875 C 6.316406 -5.804688 5.804688 -5.648438 5.421875 -5.453125 C 5.046875 -5.265625 4.78125 -5.050781 4.625 -4.8125 C 4.46875 -4.570312 4.390625 -4.304688 4.390625 -4.015625 C 4.390625 -3.441406 4.546875 -3.035156 4.859375 -2.796875 C 5.179688 -2.554688 5.628906 -2.4375 6.203125 -2.4375 C 6.867188 -2.4375 7.441406 -2.550781 7.921875 -2.78125 C 8.410156 -3.019531 8.890625 -3.390625 9.359375 -3.890625 Z M 1.3125 -12.734375 C 2.175781 -13.515625 3.132812 -14.097656 4.1875 -14.484375 C 5.238281 -14.878906 6.378906 -15.078125 7.609375 -15.078125 C 8.484375 -15.078125 9.265625 -14.929688 9.953125 -14.640625 C 10.648438 -14.359375 11.238281 -13.960938 11.71875 -13.453125 C 12.207031 -12.941406 12.578125 -12.332031 12.828125 -11.625 C 13.085938 -10.914062 13.21875 -10.140625 13.21875 -9.296875 L 13.21875 0 L 11.421875 0 C 11.046875 0 10.757812 -0.0507812 10.5625 -0.15625 C 10.363281 -0.257812 10.203125 -0.476562 10.078125 -0.8125 L 9.765625 -1.765625 C 9.390625 -1.441406 9.023438 -1.15625 8.671875 -0.90625 C 8.328125 -0.65625 7.96875 -0.445312 7.59375 -0.28125 C 7.226562 -0.113281 6.832031 0.0078125 6.40625 0.09375 C 5.976562 0.1875 5.503906 0.234375 4.984375 0.234375 C 4.328125 0.234375 3.726562 0.148438 3.1875 -0.015625 C 2.65625 -0.191406 2.195312 -0.453125 1.8125 -0.796875 C 1.425781 -1.140625 1.128906 -1.5625 0.921875 -2.0625 C 0.710938 -2.570312 0.609375 -3.15625 0.609375 -3.8125 C 0.609375 -4.363281 0.742188 -4.910156 1.015625 -5.453125 C 1.296875 -5.992188 1.769531 -6.488281 2.4375 -6.9375 C 3.113281 -7.382812 4.015625 -7.753906 5.140625 -8.046875 C 6.265625 -8.335938 7.671875 -8.5 9.359375 -8.53125 L 9.359375 -9.296875 C 9.359375 -10.222656 9.160156 -10.898438 8.765625 -11.328125 C 8.378906 -11.765625 7.816406 -11.984375 7.078125 -11.984375 C 6.535156 -11.984375 6.082031 -11.921875 5.71875 -11.796875 C 5.351562 -11.671875 5.035156 -11.53125 4.765625 -11.375 C 4.492188 -11.226562 4.238281 -11.085938 4 -10.953125 C 3.757812 -10.828125 3.484375 -10.765625 3.171875 -10.765625 C 2.890625 -10.765625 2.65625 -10.832031 2.46875 -10.96875 C 2.28125 -11.113281 2.128906 -11.28125 2.015625 -11.46875 Z M 1.3125 -12.734375 "/></g></g></g><g fill="#012243" fill-opacity="1"><g transform="translate(41.827423, 84.277387)"><g><path d="M 12.359375 -11.484375 C 12.242188 -11.335938 12.128906 -11.222656 12.015625 -11.140625 C 11.898438 -11.054688 11.738281 -11.015625 11.53125 -11.015625 C 11.34375 -11.015625 11.160156 -11.066406 10.984375 -11.171875 C 10.804688 -11.285156 10.601562 -11.40625 10.375 -11.53125 C 10.144531 -11.664062 9.867188 -11.785156 9.546875 -11.890625 C 9.234375 -12.003906 8.84375 -12.0625 8.375 -12.0625 C 7.78125 -12.0625 7.265625 -11.953125 6.828125 -11.734375 C 6.398438 -11.523438 6.039062 -11.21875 5.75 -10.8125 C 5.46875 -10.414062 5.253906 -9.925781 5.109375 -9.34375 C 4.972656 -8.769531 4.90625 -8.128906 4.90625 -7.421875 C 4.90625 -5.910156 5.207031 -4.75 5.8125 -3.9375 C 6.425781 -3.132812 7.257812 -2.734375 8.3125 -2.734375 C 8.664062 -2.734375 8.972656 -2.765625 9.234375 -2.828125 C 9.503906 -2.890625 9.738281 -2.96875 9.9375 -3.0625 C 10.132812 -3.164062 10.300781 -3.273438 10.4375 -3.390625 C 10.582031 -3.503906 10.71875 -3.609375 10.84375 -3.703125 C 10.976562 -3.796875 11.109375 -3.875 11.234375 -3.9375 C 11.367188 -4 11.515625 -4.03125 11.671875 -4.03125 C 11.984375 -4.03125 12.222656 -3.914062 12.390625 -3.6875 L 13.53125 -2.25 C 13.101562 -1.757812 12.648438 -1.351562 12.171875 -1.03125 C 11.691406 -0.71875 11.195312 -0.46875 10.6875 -0.28125 C 10.175781 -0.09375 9.65625 0.0351562 9.125 0.109375 C 8.601562 0.179688 8.085938 0.21875 7.578125 0.21875 C 6.660156 0.21875 5.796875 0.0507812 4.984375 -0.28125 C 4.171875 -0.625 3.457031 -1.117188 2.84375 -1.765625 C 2.238281 -2.421875 1.753906 -3.222656 1.390625 -4.171875 C 1.035156 -5.117188 0.859375 -6.203125 0.859375 -7.421875 C 0.859375 -8.492188 1.015625 -9.492188 1.328125 -10.421875 C 1.648438 -11.347656 2.113281 -12.148438 2.71875 -12.828125 C 3.332031 -13.515625 4.09375 -14.050781 5 -14.4375 C 5.90625 -14.820312 6.953125 -15.015625 8.140625 -15.015625 C 9.265625 -15.015625 10.25 -14.832031 11.09375 -14.46875 C 11.945312 -14.101562 12.710938 -13.578125 13.390625 -12.890625 Z M 12.359375 -11.484375 "/></g></g></g><g fill="#012243" fill-opacity="1"><g transform="translate(55.714638, 84.277387)"><g><path d="M 6.734375 0.234375 C 6.066406 0.234375 5.472656 0.132812 4.953125 -0.0625 C 4.441406 -0.257812 4.007812 -0.539062 3.65625 -0.90625 C 3.300781 -1.269531 3.03125 -1.707031 2.84375 -2.21875 C 2.664062 -2.738281 2.578125 -3.320312 2.578125 -3.96875 L 2.578125 -11.953125 L 1.1875 -11.953125 C 0.976562 -11.953125 0.800781 -12.015625 0.65625 -12.140625 C 0.507812 -12.273438 0.4375 -12.476562 0.4375 -12.75 L 0.4375 -14.296875 L 2.796875 -14.734375 L 3.59375 -18.5625 C 3.707031 -18.988281 4 -19.203125 4.46875 -19.203125 L 6.546875 -19.203125 L 6.546875 -14.703125 L 10.359375 -14.703125 L 10.359375 -11.953125 L 6.546875 -11.953125 L 6.546875 -4.234375 C 6.546875 -3.816406 6.640625 -3.488281 6.828125 -3.25 C 7.023438 -3.007812 7.304688 -2.890625 7.671875 -2.890625 C 7.859375 -2.890625 8.019531 -2.910156 8.15625 -2.953125 C 8.289062 -3.003906 8.40625 -3.054688 8.5 -3.109375 C 8.601562 -3.160156 8.691406 -3.207031 8.765625 -3.25 C 8.847656 -3.289062 8.929688 -3.3125 9.015625 -3.3125 C 9.128906 -3.3125 9.222656 -3.285156 9.296875 -3.234375 C 9.378906 -3.179688 9.457031 -3.09375 9.53125 -2.96875 L 10.734375 -1.078125 C 10.179688 -0.648438 9.5625 -0.320312 8.875 -0.09375 C 8.1875 0.125 7.472656 0.234375 6.734375 0.234375 Z M 6.734375 0.234375 "/></g></g></g><g fill="#012243" fill-opacity="1"><g transform="translate(66.546093, 84.277387)"><g><path d="M 5.703125 -14.78125 L 5.703125 0 L 1.75 0 L 1.75 -14.78125 Z M 6.1875 -18.984375 C 6.1875 -18.648438 6.117188 -18.335938 5.984375 -18.046875 C 5.847656 -17.765625 5.664062 -17.515625 5.4375 -17.296875 C 5.21875 -17.078125 4.957031 -16.90625 4.65625 -16.78125 C 4.351562 -16.65625 4.03125 -16.59375 3.6875 -16.59375 C 3.363281 -16.59375 3.054688 -16.65625 2.765625 -16.78125 C 2.472656 -16.90625 2.210938 -17.078125 1.984375 -17.296875 C 1.765625 -17.515625 1.59375 -17.765625 1.46875 -18.046875 C 1.34375 -18.335938 1.28125 -18.648438 1.28125 -18.984375 C 1.28125 -19.328125 1.34375 -19.644531 1.46875 -19.9375 C 1.59375 -20.226562 1.765625 -20.484375 1.984375 -20.703125 C 2.210938 -20.921875 2.472656 -21.09375 2.765625 -21.21875 C 3.054688 -21.34375 3.363281 -21.40625 3.6875 -21.40625 C 4.03125 -21.40625 4.351562 -21.34375 4.65625 -21.21875 C 4.957031 -21.09375 5.21875 -20.921875 5.4375 -20.703125 C 5.664062 -20.484375 5.847656 -20.226562 5.984375 -19.9375 C 6.117188 -19.644531 6.1875 -19.328125 6.1875 -18.984375 Z M 6.1875 -18.984375 "/></g></g></g><g fill="#012243" fill-opacity="1"><g transform="translate(74.006169, 84.277387)"><g><path d="M 12.359375 -11.484375 C 12.242188 -11.335938 12.128906 -11.222656 12.015625 -11.140625 C 11.898438 -11.054688 11.738281 -11.015625 11.53125 -11.015625 C 11.34375 -11.015625 11.160156 -11.066406 10.984375 -11.171875 C 10.804688 -11.285156 10.601562 -11.40625 10.375 -11.53125 C 10.144531 -11.664062 9.867188 -11.785156 9.546875 -11.890625 C 9.234375 -12.003906 8.84375 -12.0625 8.375 -12.0625 C 7.78125 -12.0625 7.265625 -11.953125 6.828125 -11.734375 C 6.398438 -11.523438 6.039062 -11.21875 5.75 -10.8125 C 5.46875 -10.414062 5.253906 -9.925781 5.109375 -9.34375 C 4.972656 -8.769531 4.90625 -8.128906 4.90625 -7.421875 C 4.90625 -5.910156 5.207031 -4.75 5.8125 -3.9375 C 6.425781 -3.132812 7.257812 -2.734375 8.3125 -2.734375 C 8.664062 -2.734375 8.972656 -2.765625 9.234375 -2.828125 C 9.503906 -2.890625 9.738281 -2.96875 9.9375 -3.0625 C 10.132812 -3.164062 10.300781 -3.273438 10.4375 -3.390625 C 10.582031 -3.503906 10.71875 -3.609375 10.84375 -3.703125 C 10.976562 -3.796875 11.109375 -3.875 11.234375 -3.9375 C 11.367188 -4 11.515625 -4.03125 11.671875 -4.03125 C 11.984375 -4.03125 12.222656 -3.914062 12.390625 -3.6875 L 13.53125 -2.25 C 13.101562 -1.757812 12.648438 -1.351562 12.171875 -1.03125 C 11.691406 -0.71875 11.195312 -0.46875 10.6875 -0.28125 C 10.175781 -0.09375 9.65625 0.0351562 9.125 0.109375 C 8.601562 0.179688 8.085938 0.21875 7.578125 0.21875 C 6.660156 0.21875 5.796875 0.0507812 4.984375 -0.28125 C 4.171875 -0.625 3.457031 -1.117188 2.84375 -1.765625 C 2.238281 -2.421875 1.753906 -3.222656 1.390625 -4.171875 C 1.035156 -5.117188 0.859375 -6.203125 0.859375 -7.421875 C 0.859375 -8.492188 1.015625 -9.492188 1.328125 -10.421875 C 1.648438 -11.347656 2.113281 -12.148438 2.71875 -12.828125 C 3.332031 -13.515625 4.09375 -14.050781 5 -14.4375 C 5.90625 -14.820312 6.953125 -15.015625 8.140625 -15.015625 C 9.265625 -15.015625 10.25 -14.832031 11.09375 -14.46875 C 11.945312 -14.101562 12.710938 -13.578125 13.390625 -12.890625 Z M 12.359375 -11.484375 "/></g></g></g><g fill="#ea6645" fill-opacity="1"><g transform="translate(87.794251, 84.277387)"><g><path d="M 14.953125 -2.90625 L 14.953125 0 L 3.265625 0 L 3.265625 -2.90625 L 7.40625 -2.90625 L 7.40625 -14.296875 C 7.40625 -14.546875 7.410156 -14.800781 7.421875 -15.0625 C 7.429688 -15.320312 7.441406 -15.582031 7.453125 -15.84375 L 4.734375 -13.578125 C 4.546875 -13.441406 4.359375 -13.351562 4.171875 -13.3125 C 3.992188 -13.269531 3.820312 -13.265625 3.65625 -13.296875 C 3.488281 -13.335938 3.34375 -13.394531 3.21875 -13.46875 C 3.101562 -13.550781 3.007812 -13.640625 2.9375 -13.734375 L 1.6875 -15.40625 L 8.09375 -20.828125 L 11.34375 -20.828125 L 11.34375 -2.90625 Z M 14.953125 -2.90625 "/></g></g></g><g fill="#ea6645" fill-opacity="1"><g transform="translate(104.435954, 84.277387)"><g><path d="M 16 -10.40625 C 16 -8.59375 15.800781 -7.015625 15.40625 -5.671875 C 15.007812 -4.335938 14.46875 -3.234375 13.78125 -2.359375 C 13.09375 -1.484375 12.273438 -0.832031 11.328125 -0.40625 C 10.390625 0.0195312 9.378906 0.234375 8.296875 0.234375 C 7.203125 0.234375 6.1875 0.0195312 5.25 -0.40625 C 4.3125 -0.832031 3.503906 -1.484375 2.828125 -2.359375 C 2.148438 -3.234375 1.613281 -4.335938 1.21875 -5.671875 C 0.832031 -7.015625 0.640625 -8.59375 0.640625 -10.40625 C 0.640625 -12.226562 0.832031 -13.804688 1.21875 -15.140625 C 1.613281 -16.472656 2.148438 -17.578125 2.828125 -18.453125 C 3.503906 -19.328125 4.3125 -19.976562 5.25 -20.40625 C 6.1875 -20.832031 7.203125 -21.046875 8.296875 -21.046875 C 9.378906 -21.046875 10.390625 -20.832031 11.328125 -20.40625 C 12.273438 -19.976562 13.09375 -19.328125 13.78125 -18.453125 C 14.46875 -17.578125 15.007812 -16.472656 15.40625 -15.140625 C 15.800781 -13.804688 16 -12.226562 16 -10.40625 Z M 11.90625 -10.40625 C 11.90625 -11.882812 11.800781 -13.097656 11.59375 -14.046875 C 11.382812 -15.003906 11.113281 -15.757812 10.78125 -16.3125 C 10.445312 -16.875 10.0625 -17.265625 9.625 -17.484375 C 9.195312 -17.703125 8.753906 -17.8125 8.296875 -17.8125 C 7.835938 -17.8125 7.394531 -17.703125 6.96875 -17.484375 C 6.539062 -17.265625 6.160156 -16.875 5.828125 -16.3125 C 5.492188 -15.757812 5.226562 -15.003906 5.03125 -14.046875 C 4.832031 -13.097656 4.734375 -11.882812 4.734375 -10.40625 C 4.734375 -8.925781 4.832031 -7.707031 5.03125 -6.75 C 5.226562 -5.800781 5.492188 -5.046875 5.828125 -4.484375 C 6.160156 -3.929688 6.539062 -3.546875 6.96875 -3.328125 C 7.394531 -3.109375 7.835938 -3 8.296875 -3 C 8.753906 -3 9.195312 -3.109375 9.625 -3.328125 C 10.0625 -3.546875 10.445312 -3.929688 10.78125 -4.484375 C 11.113281 -5.046875 11.382812 -5.800781 11.59375 -6.75 C 11.800781 -7.707031 11.90625 -8.925781 11.90625 -10.40625 Z M 11.90625 -10.40625 "/></g></g></g><g clip-path="url(#b25d3412a7)"><g fill="#ea6645" fill-opacity="1"><g transform="translate(121.077658, 84.277387)"><g><path d="M 19.515625 0 L 15.21875 0 C 14.925781 0 14.691406 -0.0703125 14.515625 -0.21875 C 14.335938 -0.363281 14.195312 -0.53125 14.09375 -0.71875 L 9.59375 -8.375 C 9.550781 -8.269531 9.503906 -8.164062 9.453125 -8.0625 C 9.410156 -7.96875 9.363281 -7.875 9.3125 -7.78125 L 5.03125 -0.71875 C 4.90625 -0.53125 4.757812 -0.363281 4.59375 -0.21875 C 4.425781 -0.0703125 4.210938 0 3.953125 0 L -0.0625 0 L 6.75 -10.71875 L 0.203125 -20.8125 L 4.5 -20.8125 C 4.789062 -20.8125 5 -20.769531 5.125 -20.6875 C 5.257812 -20.613281 5.382812 -20.492188 5.5 -20.328125 L 9.96875 -12.96875 C 10.019531 -13.082031 10.070312 -13.195312 10.125 -13.3125 C 10.1875 -13.4375 10.253906 -13.5625 10.328125 -13.6875 L 14.34375 -20.25 C 14.457031 -20.445312 14.582031 -20.585938 14.71875 -20.671875 C 14.863281 -20.765625 15.035156 -20.8125 15.234375 -20.8125 L 19.34375 -20.8125 L 12.734375 -10.90625 Z M 19.515625 0 "/></g></g></g></g><path fill="#66ccff" d="M 132.894531 36.398438 C 132.894531 34.414062 131.269531 32.800781 129.273438 32.800781 L 128.203125 32.800781 C 128.546875 35.378906 128.480469 37.835938 128.230469 39.996094 L 129.273438 39.996094 C 131.269531 39.996094 132.894531 38.382812 132.894531 36.398438 " fill-opacity="1" fill-rule="nonzero"/><g clip-path="url(#7cdf093b76)"><path fill="#66ccff" d="M 110.140625 32.800781 L 86.941406 32.800781 C 86.835938 35.457031 87.109375 37.949219 87.488281 39.996094 L 109.59375 39.996094 C 109.972656 37.949219 110.25 35.457031 110.140625 32.800781 " fill-opacity="1" fill-rule="nonzero"/></g><path fill="#66ccff" d="M 121.816406 49.5 C 123.132812 49.5 124.320312 48.726562 124.839844 47.523438 C 125.035156 47.074219 129.546875 36.410156 124.796875 26.328125 C 124.425781 25.535156 123.765625 24.9375 122.9375 24.640625 C 122.574219 24.507812 122.195312 24.445312 121.816406 24.445312 C 121.679688 24.445312 121.542969 24.457031 121.410156 24.472656 C 124.253906 35.433594 121.15625 45.8125 120.042969 48.976562 C 120.191406 49.074219 120.351562 49.160156 120.519531 49.234375 C 120.933594 49.410156 121.371094 49.5 121.816406 49.5 " fill-opacity="1" fill-rule="nonzero"/><path fill="#fe6742" d="M 109.5625 45.851562 C 108.585938 48.246094 109.75 50.984375 112.15625 51.957031 C 112.726562 52.1875 113.324219 52.304688 113.933594 52.304688 C 115.863281 52.304688 117.578125 51.15625 118.308594 49.382812 C 118.5625 48.757812 124.503906 33.925781 118.25 19.910156 C 117.742188 18.761719 116.8125 17.882812 115.632812 17.433594 C 115.082031 17.222656 114.507812 17.117188 113.933594 17.117188 C 113.285156 17.117188 112.636719 17.25 112.023438 17.519531 C 109.644531 18.570312 108.566406 21.34375 109.621094 23.707031 C 114.179688 33.929688 109.75 45.367188 109.5625 45.851562 " fill-opacity="1" fill-rule="nonzero"/><g clip-path="url(#2bf39343b2)"><path fill="#011c42" d="M 67.84375 32.800781 L 68.886719 32.800781 C 68.542969 35.378906 68.605469 37.835938 68.859375 39.996094 L 67.84375 39.996094 C 65.84375 39.996094 64.21875 38.382812 64.21875 36.398438 C 64.21875 34.414062 65.84375 32.800781 67.84375 32.800781 Z M 72.292969 26.328125 C 72.851562 25.144531 74.039062 24.445312 75.277344 24.445312 C 75.410156 24.445312 75.546875 24.457031 75.679688 24.472656 C 72.839844 35.425781 75.925781 45.796875 77.042969 48.96875 C 76.890625 49.066406 76.726562 49.15625 76.554688 49.230469 C 76.140625 49.40625 75.707031 49.496094 75.265625 49.496094 C 73.953125 49.496094 72.769531 48.722656 72.25 47.523438 C 72.054688 47.074219 67.539062 36.410156 72.292969 26.328125 Z M 78.839844 19.910156 C 79.347656 18.761719 80.277344 17.882812 81.453125 17.433594 C 82.007812 17.222656 82.582031 17.117188 83.15625 17.117188 C 83.804688 17.117188 84.453125 17.25 85.066406 17.519531 C 87.445312 18.570312 88.523438 21.34375 87.46875 23.707031 C 82.90625 33.941406 87.476562 45.726562 87.527344 45.84375 C 88 47.003906 87.992188 48.277344 87.503906 49.433594 C 87.015625 50.585938 86.101562 51.484375 84.933594 51.957031 C 84.363281 52.1875 83.765625 52.304688 83.15625 52.304688 C 81.226562 52.304688 79.511719 51.15625 78.78125 49.382812 C 78.527344 48.757812 72.585938 33.925781 78.839844 19.910156 Z M 110.144531 32.800781 C 110.25 35.457031 109.972656 37.949219 109.59375 39.996094 L 87.488281 39.996094 C 87.109375 37.949219 86.835938 35.457031 86.941406 32.800781 Z M 109.621094 23.707031 C 108.566406 21.34375 109.644531 18.570312 112.023438 17.519531 C 112.636719 17.25 113.285156 17.117188 113.933594 17.117188 C 114.507812 17.117188 115.082031 17.222656 115.632812 17.433594 C 116.8125 17.882812 117.742188 18.761719 118.25 19.910156 C 124.503906 33.925781 118.5625 48.757812 118.308594 49.382812 C 117.578125 51.15625 115.863281 52.304688 113.933594 52.304688 C 113.324219 52.304688 112.726562 52.1875 112.15625 51.957031 C 109.75 50.984375 108.585938 48.246094 109.5625 45.851562 C 109.75 45.367188 114.179688 33.929688 109.621094 23.707031 Z M 121.816406 24.445312 C 122.195312 24.445312 122.574219 24.507812 122.9375 24.640625 C 123.765625 24.9375 124.425781 25.535156 124.796875 26.328125 C 129.546875 36.410156 125.035156 47.074219 124.839844 47.523438 C 124.320312 48.726562 123.132812 49.5 121.816406 49.5 C 121.371094 49.5 120.933594 49.410156 120.519531 49.234375 C 120.351562 49.160156 120.191406 49.074219 120.042969 48.976562 C 121.15625 45.8125 124.253906 35.433594 121.410156 24.472656 C 121.542969 24.453125 121.679688 24.445312 121.816406 24.445312 Z M 129.273438 32.800781 C 131.269531 32.800781 132.894531 34.414062 132.894531 36.398438 C 132.894531 38.382812 131.269531 39.996094 129.273438 39.996094 L 128.230469 39.996094 C 128.484375 37.835938 128.546875 35.378906 128.203125 32.800781 Z M 67.84375 41.472656 L 69.066406 41.472656 C 69.6875 45.28125 70.789062 47.882812 70.886719 48.105469 C 71.640625 49.847656 73.359375 50.96875 75.265625 50.96875 C 75.90625 50.96875 76.539062 50.839844 77.136719 50.589844 C 77.296875 50.519531 77.449219 50.445312 77.597656 50.359375 C 78.644531 52.453125 80.777344 53.777344 83.15625 53.777344 C 83.957031 53.777344 84.746094 53.625 85.496094 53.324219 C 88.664062 52.039062 90.191406 48.433594 88.902344 45.292969 C 88.886719 45.25 88.316406 43.785156 87.789062 41.472656 L 109.292969 41.472656 C 108.765625 43.792969 108.195312 45.265625 108.179688 45.304688 C 106.902344 48.445312 108.433594 52.042969 111.59375 53.324219 C 112.34375 53.625 113.132812 53.777344 113.933594 53.777344 C 116.308594 53.777344 118.441406 52.457031 119.484375 50.371094 C 119.628906 50.449219 119.777344 50.523438 119.933594 50.589844 C 120.535156 50.847656 121.167969 50.976562 121.816406 50.976562 C 123.726562 50.976562 125.449219 49.851562 126.203125 48.105469 C 126.300781 47.882812 127.402344 45.28125 128.023438 41.472656 L 129.273438 41.472656 C 132.089844 41.472656 134.378906 39.195312 134.378906 36.398438 C 134.378906 33.601562 132.089844 31.324219 129.273438 31.324219 L 127.964844 31.324219 C 127.605469 29.472656 127.027344 27.578125 126.140625 25.703125 C 125.601562 24.554688 124.644531 23.683594 123.445312 23.253906 C 122.652344 22.96875 121.816406 22.902344 121.003906 23.042969 C 120.621094 21.800781 120.164062 20.550781 119.609375 19.3125 C 118.9375 17.804688 117.714844 16.648438 116.167969 16.054688 C 114.621094 15.464844 112.9375 15.503906 111.421875 16.171875 C 108.292969 17.550781 106.875 21.199219 108.261719 24.304688 C 109.292969 26.613281 109.824219 29.011719 110.042969 31.324219 L 87.039062 31.324219 C 87.261719 29.011719 87.796875 26.617188 88.828125 24.304688 C 90.214844 21.199219 88.796875 17.550781 85.667969 16.171875 C 84.152344 15.503906 82.464844 15.464844 80.917969 16.054688 C 79.375 16.648438 78.152344 17.804688 77.480469 19.3125 C 76.925781 20.554688 76.464844 21.800781 76.085938 23.042969 C 74.015625 22.691406 71.878906 23.726562 70.949219 25.703125 C 70.0625 27.578125 69.484375 29.472656 69.125 31.324219 L 67.84375 31.324219 C 65.027344 31.324219 62.734375 33.601562 62.734375 36.398438 C 62.734375 39.195312 65.027344 41.472656 67.84375 41.472656 " fill-opacity="1" fill-rule="nonzero"/></g><path fill="#66ccff" d="M 11.941406 36.398438 C 11.941406 34.414062 13.566406 32.800781 15.566406 32.800781 L 16.632812 32.800781 C 16.292969 35.378906 16.355469 37.835938 16.609375 39.996094 L 15.566406 39.996094 C 13.566406 39.996094 11.941406 38.382812 11.941406 36.398438 " fill-opacity="1" fill-rule="nonzero"/><g clip-path="url(#34a4fd0a32)"><path fill="#66ccff" d="M 34.695312 32.800781 L 57.898438 32.800781 C 58.003906 35.457031 57.726562 37.949219 57.351562 39.996094 L 35.242188 39.996094 C 34.867188 37.949219 34.589844 35.457031 34.695312 32.800781 " fill-opacity="1" fill-rule="nonzero"/></g><path fill="#66ccff" d="M 23.019531 49.5 C 21.707031 49.5 20.519531 48.726562 20 47.523438 C 19.804688 47.074219 15.289062 36.410156 20.042969 26.328125 C 20.414062 25.535156 21.074219 24.9375 21.898438 24.640625 C 22.265625 24.507812 22.644531 24.445312 23.019531 24.445312 C 23.15625 24.445312 23.292969 24.457031 23.429688 24.472656 C 20.585938 35.433594 23.679688 45.8125 24.796875 48.976562 C 24.644531 49.074219 24.488281 49.160156 24.316406 49.234375 C 23.902344 49.410156 23.46875 49.5 23.019531 49.5 " fill-opacity="1" fill-rule="nonzero"/><path fill="#fe6742" d="M 35.277344 45.851562 C 36.25 48.246094 35.085938 50.984375 32.683594 51.957031 C 32.113281 52.1875 31.511719 52.304688 30.90625 52.304688 C 28.976562 52.304688 27.257812 51.15625 26.53125 49.382812 C 26.273438 48.757812 20.335938 33.925781 26.585938 19.910156 C 27.097656 18.761719 28.027344 17.882812 29.203125 17.433594 C 29.753906 17.222656 30.332031 17.117188 30.90625 17.117188 C 31.554688 17.117188 32.203125 17.25 32.816406 17.519531 C 35.195312 18.570312 36.273438 21.34375 35.21875 23.707031 C 30.660156 33.929688 35.085938 45.367188 35.277344 45.851562 " fill-opacity="1" fill-rule="nonzero"/><g clip-path="url(#be19f35902)"><path fill="#011c42" d="M 76.996094 32.800781 L 75.953125 32.800781 C 76.296875 35.378906 76.230469 37.835938 75.980469 39.996094 L 76.996094 39.996094 C 78.992188 39.996094 80.617188 38.382812 80.617188 36.398438 C 80.617188 34.414062 78.992188 32.800781 76.996094 32.800781 Z M 72.546875 26.328125 C 71.988281 25.144531 70.800781 24.445312 69.5625 24.445312 C 69.425781 24.445312 69.292969 24.457031 69.15625 24.472656 C 72 35.425781 68.910156 45.796875 67.792969 48.96875 C 67.949219 49.066406 68.109375 49.15625 68.285156 49.230469 C 68.695312 49.40625 69.132812 49.496094 69.574219 49.496094 C 70.886719 49.496094 72.070312 48.722656 72.585938 47.523438 C 72.78125 47.074219 77.296875 36.410156 72.546875 26.328125 Z M 66 19.910156 C 65.488281 18.761719 64.558594 17.882812 63.382812 17.433594 C 62.832031 17.222656 62.257812 17.117188 61.683594 17.117188 C 61.03125 17.117188 60.382812 17.25 59.773438 17.519531 C 57.390625 18.570312 56.3125 21.34375 57.367188 23.707031 C 61.933594 33.941406 57.359375 45.726562 57.3125 45.84375 C 56.835938 47.003906 56.84375 48.277344 57.332031 49.433594 C 57.824219 50.585938 58.734375 51.484375 59.902344 51.957031 C 60.472656 52.1875 61.074219 52.304688 61.683594 52.304688 C 63.609375 52.304688 65.328125 51.15625 66.054688 49.382812 C 66.3125 48.757812 72.253906 33.925781 66 19.910156 Z M 34.695312 32.800781 C 34.589844 35.457031 34.867188 37.949219 35.242188 39.996094 L 57.351562 39.996094 C 57.726562 37.949219 58.003906 35.457031 57.898438 32.800781 Z M 35.21875 23.707031 C 36.273438 21.34375 35.195312 18.570312 32.816406 17.519531 C 32.203125 17.25 31.554688 17.117188 30.902344 17.117188 C 30.332031 17.117188 29.753906 17.222656 29.203125 17.433594 C 28.027344 17.882812 27.097656 18.761719 26.585938 19.910156 C 20.335938 33.925781 26.273438 48.757812 26.53125 49.382812 C 27.257812 51.15625 28.976562 52.304688 30.90625 52.304688 C 31.511719 52.304688 32.113281 52.1875 32.683594 51.957031 C 35.085938 50.984375 36.25 48.246094 35.277344 45.851562 C 35.085938 45.367188 30.660156 33.929688 35.21875 23.707031 Z M 23.019531 24.445312 C 22.644531 24.445312 22.265625 24.507812 21.898438 24.640625 C 21.074219 24.9375 20.414062 25.535156 20.042969 26.328125 C 15.289062 36.410156 19.804688 47.074219 20 47.523438 C 20.519531 48.726562 21.707031 49.5 23.019531 49.5 C 23.46875 49.5 23.902344 49.410156 24.316406 49.234375 C 24.488281 49.160156 24.644531 49.074219 24.796875 48.976562 C 23.679688 45.8125 20.585938 35.433594 23.429688 24.472656 C 23.292969 24.453125 23.15625 24.445312 23.019531 24.445312 Z M 15.566406 32.800781 C 13.566406 32.800781 11.941406 34.414062 11.941406 36.398438 C 11.941406 38.382812 13.566406 39.996094 15.566406 39.996094 L 16.609375 39.996094 C 16.355469 37.835938 16.292969 35.378906 16.632812 32.800781 Z M 76.996094 41.472656 L 75.773438 41.472656 C 75.152344 45.28125 74.046875 47.882812 73.953125 48.105469 C 73.199219 49.847656 71.480469 50.96875 69.574219 50.96875 C 68.929688 50.96875 68.300781 50.839844 67.703125 50.589844 C 67.542969 50.519531 67.386719 50.445312 67.238281 50.359375 C 66.195312 52.453125 64.0625 53.777344 61.683594 53.777344 C 60.878906 53.777344 60.09375 53.625 59.34375 53.324219 C 56.175781 52.039062 54.644531 48.433594 55.933594 45.292969 C 55.949219 45.25 56.523438 43.785156 57.046875 41.472656 L 35.546875 41.472656 C 36.070312 43.792969 36.640625 45.265625 36.65625 45.304688 C 37.933594 48.445312 36.402344 52.042969 33.242188 53.324219 C 32.492188 53.625 31.707031 53.777344 30.90625 53.777344 C 28.527344 53.777344 26.398438 52.457031 25.351562 50.371094 C 25.207031 50.449219 25.058594 50.523438 24.90625 50.589844 C 24.304688 50.847656 23.667969 50.976562 23.019531 50.976562 C 21.109375 50.976562 19.390625 49.851562 18.632812 48.105469 C 18.539062 47.882812 17.433594 45.28125 16.8125 41.472656 L 15.566406 41.472656 C 12.75 41.472656 10.457031 39.195312 10.457031 36.398438 C 10.457031 33.601562 12.75 31.324219 15.566406 31.324219 L 16.875 31.324219 C 17.230469 29.472656 17.8125 27.578125 18.695312 25.703125 C 19.238281 24.554688 20.195312 23.683594 21.394531 23.253906 C 22.1875 22.96875 23.023438 22.902344 23.832031 23.042969 C 24.214844 21.800781 24.675781 20.550781 25.230469 19.3125 C 25.902344 17.804688 27.121094 16.648438 28.667969 16.054688 C 30.214844 15.464844 31.902344 15.503906 33.417969 16.171875 C 36.546875 17.550781 37.960938 21.199219 36.574219 24.304688 C 35.546875 26.613281 35.011719 29.011719 34.792969 31.324219 L 57.796875 31.324219 C 57.578125 29.011719 57.039062 26.617188 56.011719 24.304688 C 54.625 21.199219 56.042969 17.550781 59.167969 16.171875 C 60.683594 15.503906 62.371094 15.464844 63.917969 16.054688 C 65.464844 16.648438 66.6875 17.804688 67.359375 19.3125 C 67.910156 20.554688 68.371094 21.800781 68.753906 23.042969 C 70.820312 22.691406 72.957031 23.726562 73.890625 25.703125 C 74.773438 27.578125 75.355469 29.472656 75.710938 31.324219 L 76.996094 31.324219 C 79.8125 31.324219 82.101562 33.601562 82.101562 36.398438 C 82.101562 39.195312 79.8125 41.472656 76.996094 41.472656 " fill-opacity="1" fill-rule="nonzero"/></g><g clip-path="url(#58b9f1dad4)"><path fill="#011c42" d="M 66.046875 56.347656 C 61.21875 56.039062 57.273438 55.121094 53.890625 53.523438 C 52.1875 52.71875 52.316406 53.144531 52.75 49.726562 L 53.050781 47.355469 L 52.738281 43.902344 C 52.535156 41.644531 52.367188 40.402344 52.257812 40.316406 C 52.164062 40.238281 51.730469 39.539062 51.292969 38.757812 C 50.132812 36.6875 48.765625 34.621094 47.074219 32.390625 C 45.078125 29.757812 44.515625 28.90625 43.886719 27.5625 C 42.628906 24.878906 42.660156 22.371094 43.988281 19.679688 C 44.472656 18.699219 44.839844 18.183594 45.582031 17.429688 C 48.855469 14.125 53.832031 13.78125 59.21875 16.488281 C 63.0625 18.417969 65.75 20.632812 68.660156 24.265625 C 68.863281 24.519531 68.75 24.039062 68.210938 22.371094 C 67.175781 19.171875 66.992188 18.195312 66.996094 15.9375 C 67 14.320312 67.046875 13.910156 67.308594 13.160156 C 68.007812 11.164062 69.300781 9.582031 70.8125 8.878906 L 71.652344 8.488281 L 71.652344 5.8125 L 71.65625 3.140625 L 67.1875 3.140625 L 67.1875 1.109375 L 71.65625 1.109375 L 71.65625 -1.871094 L 73.683594 -1.871094 L 73.683594 1.109375 L 78.015625 1.109375 L 78.015625 3.140625 L 73.683594 3.140625 L 73.683594 8.523438 L 74.460938 8.902344 C 75.925781 9.617188 77.214844 11.21875 77.894531 13.160156 C 78.15625 13.910156 78.203125 14.320312 78.207031 15.9375 C 78.210938 18.195312 78.027344 19.171875 76.992188 22.371094 C 76.453125 24.039062 76.339844 24.519531 76.542969 24.265625 C 79.453125 20.632812 82.144531 18.417969 85.984375 16.488281 C 91.371094 13.78125 96.347656 14.125 99.621094 17.429688 C 100.367188 18.183594 100.730469 18.699219 101.214844 19.679688 C 102.542969 22.371094 102.578125 24.878906 101.316406 27.5625 C 100.6875 28.90625 100.128906 29.757812 98.128906 32.390625 C 96.4375 34.621094 95.070312 36.6875 93.910156 38.757812 C 93.472656 39.539062 93.039062 40.238281 92.945312 40.316406 C 92.835938 40.402344 92.667969 41.644531 92.464844 43.902344 L 92.152344 47.355469 L 92.453125 49.726562 C 92.886719 53.136719 92.996094 52.734375 91.449219 53.460938 C 89.546875 54.355469 88.59375 54.699219 86.589844 55.214844 C 84.375 55.789062 81.730469 56.175781 78.828125 56.359375 C 76.257812 56.519531 68.628906 56.511719 66.050781 56.347656 Z M 66.046875 56.347656 " fill-opacity="1" fill-rule="nonzero"/></g><path fill="#011c42" d="M 72.738281 32.433594 C 72.738281 32.304688 73.621094 29.574219 74.703125 26.359375 C 76.828125 20.023438 77.15625 18.8125 77.285156 16.75 C 77.453125 14.125 76.824219 12.082031 75.414062 10.679688 C 74.421875 9.691406 73.851562 9.441406 72.601562 9.441406 C 71.351562 9.441406 70.78125 9.691406 69.789062 10.679688 C 68.378906 12.082031 67.75 14.125 67.917969 16.75 C 68.046875 18.8125 68.375 20.023438 70.503906 26.359375 C 71.582031 29.574219 72.464844 32.304688 72.464844 32.433594 C 72.464844 32.558594 72.527344 32.664062 72.601562 32.664062 C 72.675781 32.664062 72.738281 32.558594 72.738281 32.433594 Z M 72.738281 32.433594 " fill-opacity="1" fill-rule="nonzero"/><path fill="#011c42" d="M 56.117188 40.449219 C 59.046875 39.609375 62.597656 38.9375 66.242188 38.53125 C 69.175781 38.199219 76.027344 38.199219 78.960938 38.53125 C 82.605469 38.9375 86.15625 39.609375 89.089844 40.449219 C 90.003906 40.710938 90.867188 40.921875 91.007812 40.921875 C 91.488281 40.921875 92.082031 40.222656 93.054688 38.511719 C 94.4375 36.082031 95.734375 34.117188 97.453125 31.851562 C 99.394531 29.289062 100.019531 28.355469 100.507812 27.273438 C 102.570312 22.726562 100.417969 17.582031 95.8125 16.042969 C 94.84375 15.71875 94.53125 15.679688 92.835938 15.683594 C 91.230469 15.683594 90.742188 15.738281 89.644531 16.035156 C 86.117188 16.984375 82.652344 19.09375 79.574219 22.167969 C 77.785156 23.957031 76.492188 25.679688 75.457031 27.65625 C 74.710938 29.082031 74.085938 31.261719 73.523438 34.417969 L 73.210938 36.183594 L 71.992188 36.183594 L 71.679688 34.417969 C 71.117188 31.261719 70.492188 29.082031 69.746094 27.65625 C 68.710938 25.679688 67.417969 23.957031 65.628906 22.167969 C 62.550781 19.09375 59.085938 16.984375 55.558594 16.035156 C 54.460938 15.738281 53.972656 15.683594 52.367188 15.683594 C 50.671875 15.679688 50.359375 15.71875 49.390625 16.042969 C 44.785156 17.582031 42.632812 22.726562 44.695312 27.273438 C 45.183594 28.355469 45.808594 29.289062 47.75 31.851562 C 49.46875 34.117188 50.765625 36.082031 52.148438 38.511719 C 53.121094 40.222656 53.714844 40.921875 54.199219 40.921875 C 54.335938 40.921875 55.199219 40.710938 56.117188 40.449219 Z M 56.117188 40.449219 " fill-opacity="1" fill-rule="nonzero"/><path fill="#011c42" d="M 56.488281 47.839844 C 59.636719 46.679688 63.328125 45.789062 66.984375 45.304688 C 68.296875 45.128906 69.722656 45.070312 72.601562 45.070312 C 75.480469 45.070312 76.90625 45.128906 78.21875 45.304688 C 81.894531 45.792969 85.566406 46.679688 88.761719 47.855469 C 90.402344 48.460938 90.769531 48.453125 91.125 47.820312 C 91.394531 47.34375 91.226562 46.796875 90.722656 46.488281 C 90.097656 46.109375 86.335938 44.890625 84.1875 44.375 C 79.921875 43.351562 77.128906 43.027344 72.601562 43.027344 C 67.230469 43.027344 62.933594 43.667969 58.015625 45.199219 C 54.648438 46.25 53.925781 46.636719 53.925781 47.394531 C 53.925781 47.757812 54.484375 48.371094 54.816406 48.371094 C 54.941406 48.371094 55.691406 48.132812 56.484375 47.839844 Z M 56.488281 47.839844 " fill-opacity="1" fill-rule="nonzero"/><path fill="#011c42" d="M 55.566406 53.261719 C 59.308594 51.570312 64.554688 50.257812 69.125 49.871094 C 75.921875 49.300781 83.15625 50.480469 89.441406 53.179688 L 90.578125 53.671875 L 91.265625 53.320312 C 92.753906 52.566406 91.90625 51.859375 87.691406 50.335938 C 83.15625 48.699219 77.4375 47.699219 72.601562 47.699219 C 67.761719 47.699219 62.046875 48.699219 57.511719 50.335938 C 53.332031 51.84375 52.460938 52.5625 53.890625 53.308594 C 54.246094 53.492188 54.570312 53.644531 54.617188 53.648438 C 54.660156 53.652344 55.089844 53.476562 55.5625 53.261719 Z M 55.566406 53.261719 " fill-opacity="1" fill-rule="nonzero"/><path fill="#011c42" d="M 71.476562 25.925781 C 70.292969 22.40625 69.71875 20.238281 69.40625 18.105469 C 68.9375 14.921875 69.570312 12.476562 71.128906 11.441406 C 71.613281 11.121094 71.84375 11.0625 72.601562 11.0625 C 73.359375 11.0625 73.589844 11.121094 74.074219 11.441406 C 76.109375 12.789062 76.472656 16.039062 75.171875 21.21875 C 74.71875 23.019531 72.742188 29.007812 72.601562 29.007812 C 72.554688 29.007812 72.046875 27.621094 71.476562 25.925781 Z M 71.476562 25.925781 " fill-opacity="1" fill-rule="nonzero"/><path fill="#011c42" d="M 90.601562 38.332031 C 90.414062 38.257812 89.351562 37.960938 88.234375 37.667969 C 84.351562 36.660156 80.546875 36.101562 76.589844 35.957031 L 74.285156 35.875 L 74.382812 34.855469 C 74.925781 29.15625 78.507812 23.886719 84.632812 19.777344 C 89.988281 16.183594 94.664062 15.722656 97.722656 18.488281 C 99.398438 20.003906 100.15625 22.78125 99.605469 25.382812 C 99.210938 27.257812 98.421875 28.609375 95.308594 32.769531 C 94.457031 33.910156 93.253906 35.660156 92.628906 36.664062 C 91.4375 38.582031 91.363281 38.640625 90.601562 38.335938 Z M 90.601562 38.332031 " fill-opacity="1" fill-rule="nonzero"/><path fill="#011c42" d="M 52.582031 36.671875 C 51.957031 35.664062 50.746094 33.90625 49.894531 32.769531 C 47.484375 29.546875 46.921875 28.710938 46.335938 27.457031 C 45.105469 24.832031 45.09375 22.339844 46.300781 20.042969 C 47.375 17.996094 49.726562 16.683594 52.308594 16.683594 C 55.386719 16.683594 59.390625 18.550781 63.277344 21.804688 C 67.777344 25.574219 70.363281 30.054688 70.824219 34.875 L 70.921875 35.914062 L 69.5625 35.914062 C 65.746094 35.917969 60.300781 36.71875 56.160156 37.890625 C 55.191406 38.164062 54.246094 38.414062 54.0625 38.445312 C 53.753906 38.5 53.617188 38.339844 52.582031 36.671875 Z M 52.582031 36.671875 " fill-opacity="1" fill-rule="nonzero"/><g clip-path="url(#f56947ce20)"><path fill="#011c42" d="M 64.5625 72.242188 C 58.640625 71.863281 53.796875 70.742188 49.648438 68.785156 C 47.554688 67.796875 47.714844 68.320312 48.246094 64.132812 L 48.613281 61.230469 L 48.230469 57.003906 C 47.980469 54.238281 47.777344 52.71875 47.640625 52.609375 C 47.527344 52.519531 46.996094 51.660156 46.457031 50.703125 C 45.035156 48.167969 43.355469 45.640625 41.28125 42.90625 C 38.828125 39.683594 38.140625 38.640625 37.367188 36.996094 C 35.824219 33.707031 35.863281 30.636719 37.496094 27.339844 C 38.089844 26.140625 38.535156 25.507812 39.449219 24.589844 C 43.46875 20.539062 49.574219 20.117188 56.1875 23.433594 C 60.898438 25.796875 64.199219 28.511719 67.773438 32.957031 C 68.019531 33.269531 67.882812 32.683594 67.21875 30.636719 C 65.949219 26.71875 65.722656 25.527344 65.730469 22.757812 C 65.734375 20.78125 65.792969 20.277344 66.113281 19.359375 C 66.96875 16.914062 68.554688 14.980469 70.410156 14.117188 L 71.441406 13.636719 L 71.441406 10.363281 L 71.445312 7.085938 L 65.964844 7.085938 L 65.964844 4.601562 L 71.445312 4.601562 L 71.445312 0.953125 L 73.9375 0.953125 L 73.9375 4.601562 L 79.25 4.601562 L 79.25 7.085938 L 73.9375 7.085938 L 73.9375 13.683594 L 74.890625 14.148438 C 76.6875 15.019531 78.269531 16.980469 79.101562 19.359375 C 79.421875 20.277344 79.480469 20.78125 79.484375 22.757812 C 79.492188 25.527344 79.265625 26.71875 77.996094 30.636719 C 77.332031 32.683594 77.195312 33.269531 77.441406 32.957031 C 81.015625 28.511719 84.316406 25.796875 89.027344 23.433594 C 95.640625 20.117188 101.746094 20.539062 105.765625 24.589844 C 106.679688 25.507812 107.125 26.140625 107.71875 27.339844 C 109.351562 30.636719 109.390625 33.707031 107.847656 36.996094 C 107.074219 38.640625 106.386719 39.683594 103.933594 42.90625 C 101.859375 45.640625 100.179688 48.167969 98.757812 50.703125 C 98.21875 51.660156 97.6875 52.519531 97.574219 52.609375 C 97.4375 52.71875 97.234375 54.238281 96.984375 57.003906 L 96.601562 61.230469 L 96.96875 64.132812 C 97.5 68.308594 97.632812 67.816406 95.734375 68.707031 C 93.402344 69.800781 92.234375 70.222656 89.773438 70.855469 C 87.054688 71.554688 83.808594 72.03125 80.246094 72.253906 C 77.09375 72.449219 67.730469 72.441406 64.566406 72.242188 Z M 64.5625 72.242188 " fill-opacity="1" fill-rule="nonzero"/></g><g clip-path="url(#8a10f73be9)"><path fill="#fe6742" d="M 66.859375 54.222656 C 62.570312 53.949219 59.058594 53.132812 56.054688 51.714844 C 54.539062 51 54.652344 51.378906 55.039062 48.34375 L 55.308594 46.238281 L 55.03125 43.171875 C 54.847656 41.167969 54.699219 40.066406 54.601562 39.988281 C 54.519531 39.921875 54.132812 39.300781 53.746094 38.605469 C 52.714844 36.769531 51.496094 34.933594 49.992188 32.953125 C 48.21875 30.613281 47.71875 29.859375 47.160156 28.667969 C 46.042969 26.28125 46.070312 24.058594 47.253906 21.667969 C 47.683594 20.796875 48.007812 20.339844 48.667969 19.671875 C 51.578125 16.738281 56 16.429688 60.792969 18.835938 C 64.203125 20.546875 66.597656 22.515625 69.183594 25.738281 C 69.363281 25.964844 69.261719 25.539062 68.78125 24.058594 C 67.863281 21.214844 67.699219 20.351562 67.703125 18.347656 C 67.707031 16.914062 67.75 16.546875 67.980469 15.882812 C 68.601562 14.109375 69.75 12.707031 71.09375 12.082031 L 71.839844 11.734375 L 71.84375 9.359375 L 71.84375 6.984375 L 67.875 6.984375 L 67.875 5.179688 L 71.84375 5.179688 L 71.84375 2.535156 L 73.648438 2.535156 L 73.648438 5.179688 L 77.496094 5.179688 L 77.496094 6.984375 L 73.648438 6.984375 L 73.648438 11.765625 L 74.339844 12.101562 C 75.640625 12.734375 76.785156 14.15625 77.390625 15.882812 C 77.621094 16.546875 77.664062 16.914062 77.667969 18.347656 C 77.671875 20.351562 77.507812 21.214844 76.589844 24.058594 C 76.109375 25.539062 76.007812 25.964844 76.1875 25.738281 C 78.777344 22.515625 81.167969 20.546875 84.582031 18.835938 C 89.371094 16.429688 93.792969 16.738281 96.703125 19.671875 C 97.363281 20.339844 97.691406 20.796875 98.117188 21.667969 C 99.300781 24.058594 99.328125 26.28125 98.210938 28.667969 C 97.652344 29.859375 97.152344 30.613281 95.378906 32.953125 C 93.875 34.933594 92.65625 36.769531 91.628906 38.605469 C 91.238281 39.300781 90.851562 39.921875 90.769531 39.988281 C 90.671875 40.066406 90.523438 41.167969 90.34375 43.171875 L 90.066406 46.238281 L 90.332031 48.34375 C 90.71875 51.371094 90.8125 51.011719 89.4375 51.65625 C 87.746094 52.453125 86.902344 52.757812 85.121094 53.214844 C 83.152344 53.722656 80.800781 54.070312 78.21875 54.230469 C 75.9375 54.371094 69.152344 54.367188 66.859375 54.222656 Z M 66.859375 54.222656 " fill-opacity="1" fill-rule="nonzero"/></g><path fill="#011c42" d="M 72.804688 32.992188 C 72.804688 32.878906 73.589844 30.453125 74.550781 27.597656 C 76.445312 21.972656 76.734375 20.898438 76.851562 19.066406 C 77 16.738281 76.4375 14.925781 75.1875 13.679688 C 74.304688 12.800781 73.796875 12.578125 72.6875 12.578125 C 71.574219 12.578125 71.066406 12.800781 70.183594 13.679688 C 68.933594 14.925781 68.375 16.738281 68.519531 19.066406 C 68.636719 20.898438 68.925781 21.972656 70.820312 27.597656 C 71.78125 30.453125 72.566406 32.878906 72.566406 32.992188 C 72.566406 33.101562 72.621094 33.195312 72.6875 33.195312 C 72.75 33.195312 72.804688 33.101562 72.804688 32.992188 Z M 72.804688 32.992188 " fill-opacity="1" fill-rule="nonzero"/><path fill="#011c42" d="M 58.03125 40.105469 C 60.636719 39.363281 63.792969 38.765625 67.03125 38.402344 C 69.640625 38.109375 75.730469 38.109375 78.339844 38.402344 C 81.578125 38.765625 84.734375 39.363281 87.339844 40.105469 C 88.15625 40.335938 88.921875 40.527344 89.042969 40.527344 C 89.472656 40.527344 90.003906 39.90625 90.867188 38.386719 C 92.09375 36.230469 93.246094 34.484375 94.773438 32.472656 C 96.5 30.199219 97.054688 29.371094 97.492188 28.410156 C 99.324219 24.371094 97.410156 19.804688 93.316406 18.441406 C 92.453125 18.152344 92.179688 18.117188 90.671875 18.121094 C 89.242188 18.121094 88.808594 18.171875 87.835938 18.433594 C 84.699219 19.273438 81.617188 21.148438 78.882812 23.878906 C 77.292969 25.464844 76.144531 26.996094 75.222656 28.75 C 74.558594 30.015625 74.003906 31.953125 73.507812 34.75 L 73.226562 36.320312 L 72.144531 36.320312 L 71.863281 34.75 C 71.367188 31.953125 70.8125 30.015625 70.148438 28.75 C 69.226562 26.996094 68.078125 25.464844 66.488281 23.878906 C 63.753906 21.148438 60.671875 19.273438 57.535156 18.433594 C 56.5625 18.171875 56.128906 18.121094 54.699219 18.121094 C 53.191406 18.117188 52.917969 18.152344 52.054688 18.441406 C 47.960938 19.804688 46.046875 24.371094 47.878906 28.410156 C 48.316406 29.371094 48.867188 30.199219 50.597656 32.472656 C 52.125 34.484375 53.277344 36.230469 54.503906 38.386719 C 55.367188 39.90625 55.898438 40.527344 56.324219 40.527344 C 56.449219 40.527344 57.214844 40.335938 58.03125 40.105469 Z M 58.03125 40.105469 " fill-opacity="1" fill-rule="nonzero"/><path fill="#011c42" d="M 58.359375 46.667969 C 61.160156 45.640625 64.441406 44.847656 67.691406 44.417969 C 68.859375 44.261719 70.125 44.210938 72.683594 44.210938 C 75.246094 44.210938 76.511719 44.261719 77.679688 44.417969 C 80.945312 44.847656 84.207031 45.636719 87.050781 46.683594 C 88.507812 47.21875 88.835938 47.214844 89.152344 46.648438 C 89.386719 46.226562 89.242188 45.742188 88.792969 45.46875 C 88.238281 45.128906 84.894531 44.050781 82.984375 43.59375 C 79.191406 42.683594 76.710938 42.394531 72.683594 42.394531 C 67.910156 42.394531 64.089844 42.964844 59.71875 44.324219 C 56.726562 45.257812 56.082031 45.601562 56.082031 46.269531 C 56.082031 46.59375 56.582031 47.140625 56.875 47.140625 C 56.984375 47.140625 57.652344 46.929688 58.359375 46.667969 Z M 58.359375 46.667969 " fill-opacity="1" fill-rule="nonzero"/><path fill="#011c42" d="M 57.542969 51.484375 C 60.867188 49.976562 65.53125 48.8125 69.59375 48.472656 C 75.636719 47.964844 82.066406 49.011719 87.65625 51.410156 L 88.664062 51.84375 L 89.277344 51.535156 C 90.597656 50.863281 89.84375 50.234375 86.097656 48.882812 C 82.066406 47.429688 76.984375 46.542969 72.683594 46.542969 C 68.386719 46.542969 63.300781 47.429688 59.273438 48.882812 C 55.558594 50.222656 54.78125 50.859375 56.054688 51.523438 C 56.367188 51.683594 56.65625 51.820312 56.699219 51.824219 C 56.738281 51.828125 57.117188 51.671875 57.539062 51.484375 Z M 57.542969 51.484375 " fill-opacity="1" fill-rule="nonzero"/><path fill="#fe6742" d="M 71.6875 27.214844 C 70.632812 24.089844 70.125 22.164062 69.84375 20.269531 C 69.425781 17.445312 69.992188 15.273438 71.378906 14.355469 C 71.808594 14.070312 72.011719 14.019531 72.6875 14.019531 C 73.359375 14.019531 73.566406 14.070312 73.996094 14.355469 C 75.800781 15.550781 76.125 18.4375 74.96875 23.035156 C 74.566406 24.632812 72.8125 29.949219 72.6875 29.949219 C 72.640625 29.949219 72.191406 28.71875 71.6875 27.214844 Z M 71.6875 27.214844 " fill-opacity="1" fill-rule="nonzero"/><path fill="#fe6742" d="M 88.683594 38.230469 C 88.519531 38.160156 87.574219 37.898438 86.582031 37.640625 C 83.128906 36.742188 79.75 36.246094 76.230469 36.121094 L 74.179688 36.042969 L 74.269531 35.140625 C 74.75 30.082031 77.9375 25.402344 83.378906 21.753906 C 88.140625 18.566406 92.296875 18.15625 95.015625 20.609375 C 96.503906 21.957031 97.179688 24.421875 96.691406 26.730469 C 96.335938 28.394531 95.636719 29.597656 92.871094 33.289062 C 92.113281 34.300781 91.042969 35.855469 90.488281 36.746094 C 89.429688 38.449219 89.363281 38.5 88.683594 38.230469 Z M 88.683594 38.230469 " fill-opacity="1" fill-rule="nonzero"/><path fill="#fe6742" d="M 54.890625 36.753906 C 54.332031 35.859375 53.257812 34.300781 52.5 33.289062 C 50.359375 30.429688 49.859375 29.683594 49.339844 28.574219 C 48.246094 26.242188 48.234375 24.03125 49.308594 21.992188 C 50.261719 20.175781 52.351562 19.007812 54.648438 19.007812 C 57.382812 19.007812 60.941406 20.667969 64.394531 23.554688 C 68.398438 26.902344 70.695312 30.878906 71.105469 35.160156 L 71.195312 36.078125 L 69.984375 36.082031 C 66.589844 36.085938 61.75 36.796875 58.070312 37.835938 C 57.210938 38.078125 56.371094 38.300781 56.203125 38.328125 C 55.929688 38.378906 55.8125 38.234375 54.890625 36.753906 Z M 54.890625 36.753906 " fill-opacity="1" fill-rule="nonzero"/></svg>