<svg xmlns="http://www.w3.org/2000/svg" xmlns:xlink="http://www.w3.org/1999/xlink" width="300" zoomAndPan="magnify" viewBox="0 0 224.87999 225" height="300" preserveAspectRatio="xMidYMid meet" version="1.0"><defs><clipPath id="id1"><path d="M 0 0.0585938 L 224.761719 0.0585938 L 224.761719 224.9375 L 0 224.9375 Z M 0 0.0585938 " clip-rule="nonzero"/></clipPath></defs><g clip-path="url(#id1)"><path fill="#7ed957" d="M 224.878906 199.953125 C 224.878906 213.753906 213.691406 224.941406 199.894531 224.941406 L 24.988281 224.941406 C 11.1875 224.941406 0 213.753906 0 199.953125 L 0 25.046875 C 0 11.246094 11.1875 0.0585938 24.988281 0.0585938 L 199.894531 0.0585938 C 213.691406 0.0585938 224.878906 11.246094 224.878906 25.046875 Z M 224.878906 199.953125 " fill-opacity="1" fill-rule="nonzero"/></g><path fill="#ffffff" d="M 182.902344 39.800781 C 175.679688 35.109375 166.011719 37.164062 161.300781 44.398438 L 93.300781 149.210938 L 61.886719 120.164062 C 55.550781 114.304688 45.667969 114.699219 39.816406 121.027344 C 33.964844 127.359375 34.351562 137.242188 40.683594 143.097656 L 85.714844 184.738281 C 88.714844 187.515625 92.527344 188.890625 96.3125 188.890625 C 100.515625 188.890625 105.894531 187.128906 109.421875 181.777344 C 111.496094 178.613281 187.507812 61.402344 187.507812 61.402344 C 192.199219 54.164062 190.136719 44.492188 182.902344 39.800781 Z M 182.902344 39.800781 " fill-opacity="1" fill-rule="nonzero"/></svg>